<svg xmlns:inkscape="http://www.inkscape.org/namespaces/inkscape" xmlns:rdf="http://www.w3.org/1999/02/22-rdf-syntax-ns#" xmlns="http://www.w3.org/2000/svg" xmlns:cc="http://creativecommons.org/ns#" xmlns:dc="http://purl.org/dc/elements/1.1/" xmlns:sodipodi="http://sodipodi.sourceforge.net/DTD/sodipodi-0.dtd" xmlns:svg="http://www.w3.org/2000/svg" xmlns:ns1="http://sozi.baierouge.fr" xmlns:xlink="http://www.w3.org/1999/xlink" id="svg2" sodipodi:docname="FunDraw_dot_com_Miss_Muffet_s_Spider.svg" xml:space="preserve" overflow="visible" viewBox="0 0 612 792" sodipodi:version="0.32" version="1.0" inkscape:output_extension="org.inkscape.output.svg.inkscape" enable-background="new 0 0 612 792" inkscape:version="0.46dev+devel" sodipodi:docbase="C:\Documents and Settings\Greg\Desktop\aprnewpg">
<sodipodi:namedview id="base" bordercolor="#FA6900" inkscape:pageshadow="2" guidetolerance="10.0" pagecolor="#E0E4CC" gridtolerance="10.0" inkscape:window-height="643" inkscape:zoom="0.88111888" objecttolerance="10.0" showgrid="false" borderopacity="1.0" inkscape:current-layer="svg2" inkscape:cx="238.5" inkscape:cy="214.5" inkscape:window-y="110" inkscape:window-x="110" inkscape:window-width="748" inkscape:pageopacity="0.0" fill="#FA6900">
	</sodipodi:namedview>
<path id="path2161" d="m295.43 783.01l-2.37-5.72 1.36-9.04 1.35-9.04 2.67-2.21 2.66-2.22 1.87 1.16 1.87 1.15 1.39 11.98 1.39 11.97-3.48 3.85c-1.92 2.11-4.12 3.84-4.91 3.84s-2.5-2.57-3.8-5.72zm7.68-8.61c-0.08-2.45-0.9-6.23-1.84-8.4l-1.7-3.96-0.13 8.4-0.14 8.41h1.97 1.98l-0.14-4.45zm-8.59-26.86c-3.44-6.65-15.94-18.11-19.76-18.11-1.46 0-3.72-1.28-5.02-2.85l-2.36-2.85-2.74 1.05-2.74 1.05-0.99-4.62c-0.55-2.55-1.31-6.41-1.69-8.59l-0.68-3.95-2.09 0.41-2.09 0.4-1.2-10.14c-0.66-5.57-2.12-11.05-3.23-12.16-1.12-1.12-2.05-4.74-2.06-8.06l-0.03-6.03-1.84 2.91-1.84 2.9-1.21-1.21-1.21-1.21 2.84-6.8 2.84-6.81-3.57-2.23-3.58-2.23-0.81 1.41c-0.44 0.78-0.38 0.08 0.13-1.55 0.51-1.64 1.55-6.71 2.31-11.29l1.39-8.31-1.99 1.23-1.98 1.22 1.46-3.78c0.8-2.08 1.96-6.23 2.56-9.22l1.1-5.44h-2.3-2.29l1.79-3.46c0.99-1.9 2.4-9.91 3.16-17.79l1.36-14.33h-2.15-2.16l4.07-5.5 4.07-5.5 0.63-7.05c0.35-3.88 1.11-7.85 1.69-8.83s1.67-4.66 2.43-8.18c0.75-3.52 2.16-6.89 3.12-7.49l1.75-1.08-1.95-5.14-1.95-5.14 2.81-4.18c1.54-2.3 4.68-6.14 6.97-8.54s4.16-5.24 4.16-6.3c0-1.05 1.55-2.44 3.46-3.08 4.2-1.42 18.28-14.29 18.28-16.71 0-0.96 2.3-2.31 5.11-3.02 2.81-0.7 7.18-3.35 9.7-5.87s7.78-6.56 11.69-8.97c7.24-4.48 9.5-7.39 4.14-5.34l-2.97 1.14v-1.76c0-0.97 2.9-2.74 6.43-3.93 3.53-1.2 8.65-3.91 11.36-6.04l4.95-3.87-2.47-0.04-2.48-0.05v-4.82-4.83l2.27-1.4 2.26-1.4-1.31 5.24-1.31 5.24h1.75c0.96 0 4.25-1.97 7.31-4.38l5.56-4.37 0.8 2.4c0.44 1.31 2.02 2.39 3.52 2.39 3.41 0 11 7.95 9.66 10.11l-1 1.61-3.88-3.88c-2.13-2.14-5.21-3.88-6.84-3.88h-2.97l-0.08-2.47-0.09-2.48-6.34 6.95c-6.42 7.03-26.32 23.72-46.44 38.93-13.35 10.1-37.98 33.71-37.98 36.42v1.95l2.31-1.43 2.31-1.43-1.37 3.57-1.37 3.57 3.34-2.75 3.33-2.75-2.55 4.94c-1.4 2.72-3.8 6.38-5.32 8.13-1.53 1.75-3.16 4.87-3.62 6.92s-2.15 7.87-3.74 12.94c-1.6 5.06-2.4 9.71-1.79 10.33 0.62 0.62 0.24 2.25-0.85 3.64-1.08 1.38-2.46 4.53-3.07 6.99l-1.09 4.47 3.78 2.02c2.07 1.12 3.77 2.98 3.77 4.14v2.12l-3.03-1.16-3.03-1.16-1.64 4.41-1.64 4.41-0.18 27.67c-0.1 15.22 0.26 26.66 0.81 25.42l0.99-2.26 3.44 0.9 3.43 0.89v-4.07c0-2.24-0.54-4.08-1.22-4.08-0.67 0-0.97-4.89-0.67-10.88l0.55-10.87 3.07-4.39 3.07-4.39v-8.57-8.57l-2.18 1.35-2.19 1.35 1.46-4.69c1.56-4.97 4.78-7.96 7.06-6.55l1.37 0.85 0.94-7.41c0.93-7.4 5.4-23.8 8.44-30.97l1.61-3.8-3.12 1.2-3.12 1.19-3.64-2.67-3.65-2.66 1.57-1.57 1.57-1.57 3.86 2.41 3.86 2.41v-2.88c0-1.59-1.49-3.72-3.32-4.74l-3.32-1.86 3.32-3.32c1.83-1.83 3.32-4.66 3.32-6.29v-2.97l2.79 2.79c1.53 1.53 3.09 4.78 3.46 7.22l0.67 4.44 3.6-6.59 3.6-6.59-2.93 3.6-2.93 3.59-1.35-4.25-1.35-4.25 6.44-5.27c3.54-2.9 9.55-8.61 13.35-12.69 6.72-7.2 10.24-9.17 10.24-5.74 0 0.92-1.74 3.67-3.85 6.11l-3.85 4.44-2.08-1.28-2.09-1.29v3.63 3.63l-3.95 2.85c-2.17 1.57-3.95 4.01-3.95 5.43v2.57l10.87-11.22 10.87-11.23v-5.3-5.31l6.87-6.25c3.78-3.43 7.78-6.25 8.89-6.25h2.03v-3.08-3.08l1.77 1.09 1.77 1.1 1.19-3.08 1.18-3.08 1.99 1.23 1.99 1.23v-1.77c0-0.97 1.33-1.76 2.96-1.76s2.97 0.74 2.97 1.65c0 0.9 0.86 1.64 1.91 1.64h1.92l-1.09-2.83-1.08-2.83 6.14-3.18 6.15-3.18 1.85 1.14 1.85 1.14 3.79-3.79 3.8-3.8-0.93-4.83-0.92-4.84-6.76-2.44-6.75-2.44 5.18-6.79 5.18-6.79h-2.28c-1.25 0-3.08 2-4.06 4.45l-1.79 4.44-0.12-2.47-0.13-2.47h-5.07-5.09l1.22-3.84 1.22-3.85-7.16-1.34-7.17-1.35-2.22 2.23c-1.22 1.22-3.03 2.22-4.02 2.22h-1.79l1.07-2.8 1.08-2.8-3-1.15c-1.65-0.64-4.86-1.16-7.13-1.16h-4.13l-3.63 3.29c-4.42 4-6.97 2.34-2.8-1.83l2.97-2.97-6.21-1.25-6.22-1.24-6.54 6.34-6.55 6.35v-2.02c0-1.11 2.27-4.15 5.04-6.75l5.04-4.74-3.56-1.4c-1.95-0.77-5-1.47-6.76-1.54l-3.21-0.14-1.52 8.4-1.53 8.4-0.85-3.48-0.85-3.48-1.83 1.12c-1 0.62-1.83 2.9-1.83 5.06v3.92l-2.48-0.57-2.48-0.57-4.69 4.69-4.7 4.7 13.6-1.36c7.48-0.75 21.17-2.6 30.41-4.1s21.8-3.32 27.92-4.03l11.13-1.3 1.31 2.11 1.31 2.12-4.53 0.94c-4.77 1-33.16 5.31-60.05 9.13-8.79 1.25-18.58 1.97-21.74 1.6l-5.74-0.68-2.25 6.91-2.24 6.91-0.92-3.95-0.92-3.94-1.13 2.97c-0.62 1.63-1.75 5.63-2.51 8.89l-1.38 5.93-1.44-3.91-1.44-3.91-1.94 3.91c-1.07 2.15-2.12 6.8-2.32 10.33l-0.37 6.41 8.21 25.21c4.52 13.87 8.15 27.54 8.08 30.37l-0.14 5.15-10.86 15.96-10.87 15.95 0.87 3.6 0.86 3.6-1.78 2.73-1.78 2.72-2.2-1.36c-1.2-0.74-2.19-3.13-2.19-5.31 0-2.17 1.01-7.96 2.25-12.88l2.24-8.93 6.28-6.66 6.29-6.66-2.65-10.49c-4.44-17.62-16.36-52.2-19.36-56.16-1.56-2.06-2.86-5.3-2.9-7.21-0.03-1.9-0.73-3.42-1.54-3.38-1.4 0.07-12.42 13.35-16.28 19.63l-1.79 2.91-1.37-1.37-1.38-1.37 8.68-11.07c4.77-6.09 11.78-15.19 15.57-20.21l6.89-9.14-3.93 1.55c-7.61 3.03-41.98 5.01-84.97 4.91-23.92-0.05-51.049-0.87-60.29-1.82-39.108-4-53.671-6.24-76.289-11.7-25.354-6.12-42.936-12.94-52.337-20.3-3.151-2.46-8.413-6.55-11.693-9.08l-5.964-4.6v2.11c0 1.15 3.434 11.23 7.631 22.38 9.939 26.43 31.476 68.75 43.305 85.1 13.096 18.09 32.31 39.62 46.624 52.23 6.683 5.89 20.222 15.56 30.088 21.49l17.937 10.79 27.528 10.99 27.53 10.99 26.6 6.79 26.59 6.78 27.77 3.27c15.27 1.8 28.61 4.01 29.64 4.92l1.88 1.66h-9.94c-11.65 0-45.09-4.51-65.84-8.87-8.01-1.69-22.22-5.63-31.57-8.77-9.34-3.13-17.17-5.54-17.38-5.34s4.43 4.09 10.31 8.64l10.71 8.28 1.89-3.38 1.9-3.38 1.23 1.23 1.22 1.23-2.38 12.95-2.39 12.95 3.31 5.05 3.32 5.05 8.16 4.17c4.49 2.29 16.51 6.28 26.71 8.87 17.78 4.51 24.36 5.44 54.84 7.72 7.52 0.57 14.16 1.52 14.77 2.13 0.6 0.6-0.04 1.81-1.44 2.67l-2.54 1.57-4.82-0.92-4.81-0.92-0.1 2.7-0.1 2.71-11.74 5.56-11.74 5.56-10.87 9.93-10.87 9.93-2.14-0.71-2.15-0.72 13.83-11.8c7.61-6.48 13.58-12.05 13.27-12.36s-2.88 0.32-5.71 1.39l-5.15 1.96-1.17-1.9-1.18-1.9h2.42c1.33 0 1.91-0.51 1.29-1.13-0.63-0.63-8.02 2.04-16.42 5.93-8.41 3.88-15.61 7.06-16 7.06s-0.71-0.87-0.71-1.93c0-2.02 7.47-6.5 20.75-12.43l7.91-3.54-20.76 0.96-20.75 0.95-12.85 2.87c-7.07 1.58-15.43 3.52-18.58 4.33l-5.73 1.46 1.3-2.11c1.89-3.05 29.7-11.84 45-14.22l13.08-2.03 9.65 0.94 9.64 0.94-8.89-1.98c-14.92-3.34-30.27-8.19-37.75-11.93-3.91-1.96-9.91-6.76-13.34-10.66-3.43-3.91-6.24-6.52-6.24-5.81 0 0.72-1.15 0.53-2.55-0.42s0.15 0.65 3.45 3.56c3.3 2.9 5.54 5.74 4.97 6.3-1.19 1.19-23.17-5.79-26.41-8.38-2.96-2.37-34.563-15.5-40.737-16.92l-4.942-1.14 3.954 1.96c2.174 1.08 6.523 2.89 9.664 4.02 3.141 1.14 5.266 2.51 4.723 3.05-0.544 0.55-3.459 0.05-6.478-1.1s-5.847-1.73-6.286-1.29c-1.058 1.06 14.845 7.41 21.112 8.44 2.718 0.44 8.94 2.5 13.84 4.57 4.89 2.07 14.52 5.75 21.41 8.19 6.88 2.43 13.79 5.7 15.36 7.27l2.85 2.84 11.81 2.25c6.5 1.23 11.82 2.93 11.82 3.77 0 2.02-5.14 1.85-14.82-0.47-11.05-2.66-52.85-7.69-67.791-8.15l-12.44-0.39-1.162-1.89-1.163-1.88 19.533 1.3 19.533 1.29 2.96-2.02 2.97-2.02-6.04-0.03c-3.33-0.01-15.335-1.74-26.69-3.84l-20.643-3.81-16.803-6.8-16.802-6.8-17.961-3.23c-9.8861-1.78-21.992-3.23-26.912-3.23-4.918 0-13.07-0.56-18.115-1.25l-9.172-1.26v-1.95-1.96l35.087 1 35.088 1 19.584 4.21c10.771 2.31 19.914 3.87 20.319 3.47 1.453-1.46-42.965-13.46-66.876-18.07-13.432-2.59-27.092-5.26-30.353-5.92l-5.931-1.21 5.931 3.35c7.381 4.17 15.853 10.68 13.9 10.68-0.8 0-5.811-2.44-11.137-5.43l-9.678-5.44 0.64-1.92c0.352-1.06 3.687-2.66 7.411-3.55 8.17-1.95 46.442-4.14 74.969-4.28l20.756-0.1 13.343 3.74c7.34 2.05 13.344 4.49 13.344 5.42 0 0.92 1.245 1.68 2.765 1.68 1.522 0 7.526 3.12 13.346 6.93l10.57 6.92-6.91-6.02c-3.81-3.31-11.37-8.19-16.806-10.84l-9.884-4.83-22.733-5.79c-12.503-3.18-26.291-6.47-30.64-7.31l-7.907-1.53 4.835-0.81 4.835-0.82-14.719-5.78c-16.65-6.55-42.089-13.67-48.201-13.49-2.242 0.07 3.523 2.15 12.809 4.62 18.669 4.98 35.474 10.84 38.366 13.38l1.877 1.65h-2.241c-1.234 0-4.602-0.9-7.484-1.99l-5.241-2 0.716 2.15c0.393 1.18 3.362 3.64 6.594 5.45 3.234 1.82 6.249 3.53 6.704 3.8 0.452 0.27 0.312 1.01-0.311 1.63-1.451 1.45-12.787-4.36-13.677-7.01l-0.672-2-12.335-0.91-12.335-0.91-12.037 2.13-12.036 2.12-1.979-1.98-1.981-1.98 10.347-2.48 10.346-2.49 16.006 1.04 16.006 1.04-7.9071-2.51c-4.3489-1.38-16.571-4.62-27.163-7.2l-19.256-4.68 0.653-1.98 0.652-1.97h10.696c5.883 0 14.255 0.62 18.604 1.39l7.9068 1.4-5.0566-3.76c-2.7812-2.06-12.121-11.9-20.756-21.87l-15.699-18.12-16.344-13.54c-8.989-7.45-17.876-14.4-19.752-15.45l-3.408-1.91 1.318-1.31 1.319-1.32 4.005 1.27c2.204 0.7 10.54 5.54 18.524 10.75l14.518 9.48 25.609 25.39c14.084 13.96 28.623 27.44 32.308 29.95l6.701 4.57-2.748-0.01c-5.793-0.01-16.385-8.68-41.729-34.14-14.438-14.5-28.918-28.24-32.182-30.52-3.262-2.28 8.747 10.78 26.686 29.03l32.617 33.19 10.872 3.44c5.98 1.9 16.655 6.41 23.722 10.03l12.849 6.59 12.849 2.87 12.848 2.88-7.891-6.87c-4.339-3.77-12.345-9.48-17.791-12.67-12.287-7.2-17.802-11.4-16.573-12.63 0.52-0.52 8.194 3.79 17.054 9.59s21.046 12.54 27.079 14.99c6.035 2.45 10.971 5.22 10.971 6.15v1.7l-5.07-1.93c-2.789-1.06-5.636-1.93-6.326-1.93-0.689 0-0.185 1.07 1.123 2.38 1.307 1.31 7.824 4.35 14.484 6.76l12.102 4.38 2.52-0.96 2.51-0.97 1.51 2.45 1.52 2.45-3.29-1.26c-4.69-1.8-4.08 0.03 0.9 2.69l4.19 2.24-1.55-2.51-1.55-2.51 3.78 1.45 3.78 1.45-5.8-6.05c-3.19-3.33-6.68-6.06-7.76-6.06s-12.7-5.24-25.826-11.64c-13.125-6.4-30.685-16.2-39.025-21.78l-15.162-10.14-17.996-19.02c-9.8979-10.46-22.441-24.9-27.869-32.08l-9.872-13.07-18.609-36.82-18.607-36.81-6.326-20.37-6.326-20.36 1.264-14.97 1.265-14.98 6.823-9.91c3.754-5.45 9.752-12.72 13.33-16.14 7.284-6.99 50.257-36.21 53.24-36.21h1.9215l-1.2078 1.95c-0.6642 1.08-5.3867 4.37-10.495 7.32-14.923 8.61-30.185 20.09-42.552 32.01l-11.52 11.1-3.525 6.92c-1.937 3.81-4.037 10.91-4.661 15.78l-1.139 8.87 3.999 6.47 3.999 6.47 11.827 9.1 11.827 9.1 13.205 4.86c7.263 2.67 14.735 5.67 16.605 6.67 5.084 2.73 37.665 9.26 57.88 11.6 9.785 1.14 28.91 3.09 42.5 4.34l24.712 2.28 48.43-1.62c26.64-0.89 52.76-1.8 58.05-2.01l9.62-0.38 4.52-5.68 4.53-5.67-1.97-1.22-1.96-1.21 6.99-4.32 6.99-4.32 1.35-4.24c0.74-2.34 3.15-5.7 5.36-7.49l4.01-3.25-1.26-2.03-1.25-2.04-59.09-0.38-59.09-0.38-1.07 4.07-1.06 4.07h-2.26-2.25l1.37-24.71 1.37-24.7h-2.76-2.76l0.23-10.38 0.23-10.38-1.95-2.47-1.96-2.47 1.73 0.03c0.95 0.01 2.97 0.81 4.48 1.77l2.76 1.75-1.21 3.17c-1.69 4.39 0.07 3.97 2.52-0.61l2.02-3.78-6.4-4.26-6.4-4.26 4.21 1.18 4.21 1.17 12.1-10.44 12.1-10.43-2.01-0.67c-1.11-0.37-5.14 2.08-8.97 5.44-3.82 3.35-7.59 6.07-8.36 6.04-0.78-0.04 1.25-2.38 4.51-5.2 3.26-2.83 10.6-9.52 16.31-14.88l10.38-9.74v-2.85c0-1.57 0.91-2.85 2.03-2.85h2.02l1.19 5.93 1.18 5.93h1.98 1.98l-1.24-6.18c-0.68-3.39-1.23-7.4-1.23-8.89 0-1.5-0.84-2.72-1.86-2.72s-8.36 6.13-16.31 13.62-19.21 17.99-25.04 23.33l-10.58 9.7 0.13 11.76c0.07 6.47 1.16 21.84 2.42 34.15l2.3 22.38-1.04 7.77-1.05 7.75 1.57-0.96c0.86-0.53 2.78 0.5 4.26 2.3l2.69 3.26-2.47 0.83-2.47 0.83 0.07 3.3 0.06 3.29 2.62-3.46c1.45-1.9 3.2-3.46 3.89-3.46 0.7 0 1.27 4.01 1.27 8.9v8.9h-1.98-1.97v-4.95-4.94h-2.11-2.11l1.25 3.96 1.26 3.95h-1.89-1.89l-2.1-12.36c-2.64-15.56-4.44-38.92-5.46-70.99l-0.8-25.03 15.32-12.85c8.43-7.08 20.19-17.82 26.12-23.89l10.79-11.02 6.66-1.25 6.66-1.25-1.13-4.2c-0.62-2.31-1.68-6.2-2.36-8.65l-1.23-4.44h1.79 1.8l2.37 8.86 2.37 8.86 7.18 3c3.94 1.65 7.96 3 8.91 3s1.8-1.56 1.87-3.46l0.13-3.46 2.1 4.34 2.1 4.34 5.97 2.09c3.28 1.14 6.39 2.08 6.91 2.08 0.51 0-0.18-1.34-1.53-2.97-4.34-5.23 0.35-3.16 5.55 2.45l5.01 5.4 0.86-2.56 0.85-2.56 3.26 2.85c1.78 1.57 5.47 3.53 8.18 4.36l4.92 1.51-2.74-3.3-2.73-3.3 1.42-1.42 1.41-1.41 1.93 3.44c1.06 1.89 4.51 4.78 7.66 6.41 3.16 1.63 6.2 2.96 6.76 2.96s0.51-1.33-0.11-2.96l-1.14-2.97h1.71c0.95 0 2.83 1.78 4.18 3.96l2.47 3.95h4.51c2.48 0 9.7 1.35 16.04 3l11.53 3.01 5.66 4.03c3.11 2.21 8.89 8.9 12.85 14.86 3.96 5.97 7.51 10.53 7.9 10.14s-0.96-5.26-3-10.84c-2.04-5.57-3.2-10.64-2.58-11.25 0.62-0.62-0.59-2.53-2.68-4.24l-3.81-3.1 3.46 1.08 3.46 1.09v-2.25c0-1.24-1.56-4-3.46-6.13l-3.46-3.88 4.44 1.38 4.43 1.38-0.81-2.6c-0.45-1.43-1.35-5.04-2-8.03l-1.19-5.44h-4.91-4.9v-1.98-1.97h3.21 3.2l-2.46-2.97c-1.35-1.63-3.72-2.96-5.27-2.96h-2.81l0.59-3.45 0.57-3.44-4.42-1.96-4.43-1.96 0.47-3 0.48-3-4.34-0.61-4.34-0.62 1.09-2.84 1.09-2.85-2.68-0.01-2.68-0.01-3.09-5.42c-1.69-2.99-3.29-6.32-3.56-7.41-0.82-3.38-10.76-12.84-13.49-12.84h-2.59v-2.97-2.97h-3.73-3.73l-11.84-7.91c-6.51-4.34-13.29-7.9-15.05-7.9-1.77 0-3.21-0.73-3.21-1.61 0-2.24-13.11-8.28-17.98-8.28h-4l1.02-1.65 1.02-1.65-6.8-3.24-6.8-3.24-3.08 1.18-3.08 1.18 0.58-2.63 0.57-2.64-7.91-1.97c-4.35-1.08-8.41-2.68-9.02-3.56-1.41-2-25.16-7.43-38.66-8.84l-10.12-1.06-1.36 2.2c-0.75 1.21-2.25 2.2-3.34 2.2h-1.97l1.12-1.82 1.13-1.83-3.48-0.77c-1.92-0.42-6.6 0.28-10.4 1.56l-6.921 2.33-6.442-0.95-6.443-0.95-2.83 2.35-2.829 2.35 1.081 2.82c0.595 1.55 2.291 2.82 3.766 2.82h2.684l2.116-3.95c1.164-2.17 3.016-3.95 4.115-3.95h2.001l-3.553 4.88-3.552 4.88-4.41 0.06-4.408 0.06-1.283-5.12-1.283-5.11-7.156 1.26-7.156 1.25-7.907 5.42-7.907 5.42-0.625 5.36-0.624 5.35h-1.979-1.981l1.255-3.95 1.256-3.95h-1.311c-0.719 0-4.098 2-7.504 4.44-3.406 2.45-7.954 5.35-10.105 6.44-2.151 1.1-6.365 5.55-9.364 9.89l-5.4557 7.89-0.0652 11.2c-0.0356 6.17-0.6049 12.62-1.2652 14.34-0.6602 1.71-2.0776 3.12-3.1509 3.12h-1.9511l1.2928-9.4 1.2928-9.4-1.8562-8.26-1.8562-8.26 3.4633-5.7c1.9056-3.13 7.1346-8.6 11.622-12.15l8.158-6.46v-2.57-2.57l8.71-6.66c4.789-3.66 9.802-8.39 11.141-10.51l2.431-3.87-2.257-0.75-2.26-0.76 1.097-1.77 1.097-1.77 14.237 1.18 14.235 1.19 17.52-3.3c9.64-1.82 18.03-2.8 18.65-2.18s0.3 1.91-0.72 2.86c-2.33 2.19-34.215 8.14-47.311 8.82l-9.884 0.52-21.25 20.67c-11.687 11.37-21.25 21.5-21.25 22.51-0.0002 1.01 3.337-1.33 7.413-5.19 4.076-3.87 11.609-10.15 16.739-13.97l9.326-6.95-1.419-1.57-1.419-1.57 3.358 1.2 3.359 1.2-1.188-3.09-1.186-3.09 4.394 1.4 4.394 1.39 3.317-2.82 3.317-2.81 13.077-2.31c7.193-1.26 16.201-2.3 20.02-2.3h6.943l2.46-2.97c1.35-1.63 3.3-2.96 4.31-2.96h1.86l-1.23 1.98-1.22 1.97h4.95 4.94l1.36-2.2 1.36-2.2 7.77 1.04 7.77 1.04 2.17-4.77c2.22-4.87 5.5-6.46 5.5-2.66 0 1.16-0.88 3.74-1.94 5.73l-1.94 3.63 3.42 1.38c1.88 0.76 6.6 1.73 10.47 2.14 3.88 0.41 10.89 2.1 15.57 3.75 4.69 1.65 10.19 3.01 12.22 3.01h3.71v2.2 2.21l5.39-1.03 5.39-1.03 7.46 3.81c7.51 3.83 10.38 7.25 4.06 4.82l-3.4-1.31 1.6 1.59c0.88 0.87 3.08 1.68 4.88 1.79s4.89 0.33 6.86 0.49l3.57 0.3-1.16 1.87-1.16 1.88 6.91 1.3 6.91 1.29 4.91 4.55 4.9 4.54 0.94-2.28 0.93-2.28 0.16 2.47 0.15 2.47h3.18 3.18l-1.14 2.97-1.14 2.96h1.75c0.96 0 2.1-1.05 2.52-2.33l0.78-2.32 2.85 1.78c1.56 0.98 4.5 1.51 6.52 1.18l3.68-0.61-1.24 2-1.23 2 1.88 1.17 1.89 1.17 1.63-2.92 1.64-2.92 2.44 1.51 2.45 1.51-4.04 4.33c-2.21 2.39-3.32 4.33-2.44 4.33 0.87 0 2.46 2 3.53 4.45 2.16 4.93 5.12 5.81 6.42 1.92l0.85-2.54-2.41 0.56-2.41 0.55-0.91-2.47-0.9-2.47h3.31 3.32l1.03 3.96c0.57 2.17 1.82 3.95 2.78 3.95s1.75 0.9 1.75 1.99c0 2.8 10.81 13.82 13.55 13.82 1.24 0 2.26 0.95 2.26 2.11v2.11l-4.45-1.38-4.45-1.39 4.95 4.37c2.71 2.4 3.69 3.72 2.16 2.92l-2.77-1.44 1.41 2.28c0.77 1.26 2.18 2.28 3.14 2.28 0.95 0 4.2 0.94 7.23 2.09l5.49 2.09-2.4 1.49-2.4 1.48 4.94 6.69 4.93 6.69 3.37 0.49c1.85 0.27 4.83 2.43 6.61 4.8l3.25 4.3 4.29-1.37 4.3-1.36-9-8.75c-4.96-4.81-9.86-8.75-10.91-8.75s-1.9-0.82-1.9-1.83c0-1-2.31-4.56-5.12-7.91l-5.13-6.09-1.63 1.02-1.64 1.01-2.29-6.93c-1.26-3.81-3.77-8.05-5.59-9.42s-4.81-5.15-6.64-8.41l-3.32-5.92-3.59-0.68c-1.98-0.38-4.44-1.49-5.48-2.47l-1.87-1.79h3.36c1.84 0 3.34-0.67 3.32-1.48-0.06-2.89-8.93-9.77-14.29-11.09l-5.44-1.34v-2.93c0-1.61 0.49-2.93 1.09-2.93 2.59 0 13.95 6.82 16.14 9.7l2.41 3.15 0.06-15.2 0.07-15.2 2.11-1.31c1.15-0.71 2.58-0.82 3.16-0.24s0 7.33-1.29 14.99l-2.35 13.94 3.53 9.24 3.52 9.24 0.77-2.3c0.42-1.26 1.58-2.29 2.58-2.29h1.81v3.62 3.63l11.36-1.55c18.99-2.59 78.54-5.86 114.55-6.28l34-0.41 2.09-4.56 2.09-4.56-1.99-3.71c-2.48-4.64-2.53-6.52-0.13-5.03l1.85 1.14 1.16-8.44c1.9-13.8 1.75-35.46-0.32-45.51l-1.94-9.38h1.57c0.86 0 2.16 3.11 2.87 6.92 0.71 3.8 1.98 6.91 2.82 6.91 0.83 0 7.39-6.22 14.57-13.83s13.98-13.84 15.13-13.84c1.14 0 4-3.26 6.35-7.24l4.27-7.25 0.76 2.27 0.76 2.27 4.78-5.69c2.64-3.13 4.79-6.57 4.79-7.645s1.77-2.417 3.93-2.983l3.93-1.028 2.06-5.406c1.13-2.973 2.49-4.966 3.03-4.426 0.9 0.899 9.35-6.322 23.06-19.699l5.38-5.242 1.4 1.404 1.4 1.401-5.05 5.414-5.04 5.417 0.9 2.471c0.5 1.36 1.84 2.471 2.97 2.471h2.05l-2.26-2.724-2.26-2.724 3.99-1.044 4-1.044v-3.151c0-3.416 3.03-4.262 4.83-1.348l1.11 1.801-3.46 6.094c-1.91 3.351-4.14 6.099-4.96 6.105-0.81 0.006-1.48 1.342-1.48 2.965v2.953l-7.47 5.448c-12.14 8.85-26.13 20.99-26.13 22.68 0 0.86-3.56 4.77-7.91 8.7s-7.91 7.9-7.91 8.83v1.69l2.97-1.14 2.96-1.14v1.3c0 0.72-2.44 2.2-5.43 3.3l-5.44 1.98-8.4 10.49-8.4 10.48v4.11c0 2.27-0.89 4.66-1.98 5.34-1.09 0.67-1.98 2.55-1.98 4.18v2.97l2.48-1.49 2.47-1.48-2.48 3.06c-1.36 1.68-3.24 7.11-4.16 12.07l-1.68 9 3.17-1.15 3.17-1.15-3.41 3.89-3.41 3.9-0.35 9.78c-0.19 5.38 0.27 11.71 1.02 14.07l1.36 4.28-2.05 1.27c-1.13 0.7-2.06 2.53-2.06 4.06v2.79l3.46-1.27 3.46-1.26-3.51 4-3.5 4-0.13 14.05-0.13 14.05 1.98 6.5c1.1 3.57 3.07 12.56 4.38 19.95l2.39 13.46-1.08 8.07-1.08 8.07 3.56-5.87 3.57-5.87 5.93-2.45 5.92-2.45 1.1-8.22 1.11-8.22 2.1-0.7c1.16-0.39 2.1-2.33 2.1-4.33 0-1.99 0.54-5.03 1.2-6.75l1.2-3.13h2.76 2.75l0.25-3.95c0.13-2.18 0.36-6.71 0.49-10.08l0.25-6.12-1.67-1.03-1.68-1.03 1.36-9.16 1.37-9.15-1.56 1.54c-1.67 1.64-1.7 1.73-4.57 15.26-1.03 4.89-4.61 16.6-7.94 26.03l-6.07 17.14v6.09 6.09h-1.98-1.97v-5.78c0-8.03 4.35-26.57 6.59-28.11l1.85-1.27-0.98-5.15-0.98-5.16h2.95 2.95l-1.15-7.09-1.15-7.09 2.87 1.1 2.87 1.1 0.33-6.36c0.39-7.39-0.47-23.88-1.28-24.75-0.49-0.51-16.88-2.06-24.26-2.29-1.36-0.04-2.47-1.05-2.47-2.23v-2.14l13.03 0.66 13.04 0.66-1.06-6.47-1.05-6.46 1.6 0.99c0.89 0.54 2.15 3.68 2.8 6.96l1.2 5.97 8.45 0.04c9.19 0.04 48.32 5.26 50.77 6.77 0.83 0.52 6.64 1.44 12.9 2.04 6.27 0.61 13.03 1.98 15.02 3.05s5.3 1.94 7.33 1.94c2.04 0 10.03 3.12 17.76 6.92 7.72 3.81 15.51 6.92 17.3 6.92 1.8 0 4.8 0.82 6.67 1.82 6.29 3.37 19.61 16.9 22.71 23.08l3.07 6.12-1.06 4.04-1.05 4.03 2.15 1.33 2.15 1.33v18.57 18.56l-4 27.66c-2.19 15.21-4.78 31.49-5.74 36.17-3.82 18.59-12.59 47.37-18.11 59.5l-2.44 5.35h-2.53-2.53l4.33 8.89 4.33 8.89h4.33c2.38 0 4.88 0.9 5.55 1.98l1.22 1.98h-3.17-3.17l5.65 7.41c5.97 7.83 9.17 15.82 12.11 30.25 0.98 4.84 5.12 18.37 9.2 30.07l7.41 21.27-3.12 7.39c-1.71 4.07-3.63 9.84-4.28 12.83-0.64 2.99-1.96 5.44-2.92 5.44h-1.76l0.86-4.45 0.86-4.45-2.24 4.94c-1.22 2.72-3.03 6.28-4.02 7.91s-5.56 10.43-10.17 19.56l-8.39 16.59-2.96 1.45c-10.76 5.27-19.1 8.52-21.03 8.18-1.23-0.21-2.76 0.95-3.38 2.58l-1.14 2.97-2.96-1.14-2.97-1.14-5.02 5.42c-2.76 2.97-5.01 4.73-5.01 3.91 0-0.83-2.32 0.01-5.15 1.87l-5.16 3.38-2.02-2.02-2.01-2.02 11.38-12.88 11.38-12.89 11.11-5.54c6.11-3.05 11.35-6.05 11.65-6.66 0.29-0.61 4.5-7.28 9.34-14.81 4.85-7.54 9.8-16.38 11-19.65 1.2-3.26 3-7.48 4-9.37 0.99-1.89 1.81-5.64 1.81-8.34v-4.91l-2.97 1.14-2.96 1.14v-2.07c0-1.14 0.89-2.63 1.97-3.3 1.09-0.67 1.98-1.99 1.98-2.94 0-0.94-1.39-3.11-3.09-4.81l-3.09-3.09 1.12-1.81c1.67-2.7-0.91-8.1-3.86-8.1h-2.57l1.06-4.05 1.06-4.06-3.42-8.3c-5.02-12.17-6.37-14.29-8.77-13.74l-2.16 0.49v-6.98-6.98l-2.97-1.13c-1.63-0.63-2.96-2.06-2.96-3.18s-3.56-5.9-7.91-10.62-7.91-9.91-7.91-11.54v-2.96l-4.69 1.79-4.69 1.78-2.23-2.23-2.22-2.23v3.67 3.67l-3.46-2.93c-1.9-1.6-7.46-4.06-12.36-5.45-4.89-1.39-10.93-3.33-13.43-4.3-2.5-0.98-4.92-1.77-5.38-1.77s-0.34 1.55 0.26 3.46l1.09 3.46-3.8-4.28-3.81-4.28-7.73-1.45c-4.25-0.8-9.95-1.66-12.67-1.92-2.71-0.26-8.5-2.1-12.85-4.09l-7.9-3.63-21.06-0.72-21.06-0.73 0.66 9.56c0.37 5.26 1.23 11.03 1.92 12.82l1.26 3.26-2.02 1.25-2.03 1.25 1.09 2.83 1.09 2.84-4.27 6c-2.35 3.29-4.96 6-5.8 6h-1.52l-0.09-14.65c-0.06-8.05-0.71-15.63-1.45-16.84l-1.36-2.19-5.07 3.99-5.07 3.99h-6.91-6.92l-6.62-4.1-6.62-4.09-2.02 1.25-2.02 1.25 2.15 4.01 2.15 4.02-1.25 4.99-1.25 4.99 2.76 3.23c2.68 3.14 5.85 10.14 4.58 10.14-0.35 0-3.37-0.95-6.71-2.12l-6.08-2.12-2.02-5.78c-1.11-3.19-2.86-5.79-3.88-5.79h-1.86l-1.46 7.41-1.46 7.41-0.89-2.43c-0.49-1.34 0.58-7.46 2.36-13.6l3.25-11.18-2.11-2.11c-1.16-1.16-2.11-3.71-2.11-5.66v-3.56h-2.08c-1.15 0-7.95 3.11-15.13 6.92-7.17 3.8-13.79 6.92-14.71 6.92-2.71 0-18.26 15.86-18.74 19.12-0.63 4.33-2.71 5.84-2.71 1.96v-3.29h-2.16c-1.19 0-2.61 1.72-3.16 3.81l-1 3.82-2.72-1.04-2.73-1.05-2.34 5.14c-1.28 2.82-3.14 5.13-4.11 5.13h-1.78l1.49-2.47 1.48-2.47-3.27 2.65c-1.79 1.46-3.82 4.41-4.51 6.57l-1.24 3.92-2.86-1.1-2.86-1.1-1.11 3.43c-0.6 1.88-1.56 4.76-2.13 6.39l-1.03 2.96-0.95-2.55-0.95-2.56-2.77 2.3-2.78 2.31v4.7 4.7h-1.97c-1.09 0-1.98-0.95-1.98-2.1v-2.09l-1.98 1.22c-1.08 0.67-1.97 2.95-1.97 5.06v3.84l-2.47-0.5-2.47-0.49-0.63 5.43c-0.65 5.65-3.32 7.27-4.88 2.97l-0.89-2.47-2.73 5.93c-1.51 3.25-4.95 7.84-7.65 10.18l-4.91 4.25 0.21 8.06 0.21 8.07-1.66-1.03-1.67-1.03-1.23 4.91-1.23 4.91 1.29 2.09 1.29 2.09h-3.08-3.09v6.48 6.48l-3.03 4.33-3.04 4.33 0.4 13.4 0.39 13.41 1.85 3.69 1.85 3.7-2.17-1.34-2.18-1.35v8.1 8.09l3.06 4.67 3.06 4.67-3.55-0.29-3.55-0.29 0.62 5.81 0.63 5.81 3.33 2.53 3.32 2.52-2.28 0.07-2.29 0.06 1.04 3.96c0.57 2.17 1.59 3.95 2.28 3.96 0.69 0 1.49 3.29 1.78 7.31l0.52 7.32 3.93 4.17c2.15 2.3 3.92 5.51 3.92 7.14v2.96l6.13 5.81c7.63 7.23 16.6 20.18 18.09 26.09l1.12 4.48-3.71 1.98-3.7 1.98-2.94-5.67zm-0.28-13.73c-2.98-4.04-7.45-9.33-9.93-11.75l-4.51-4.4-5.22 2.71-5.23 2.71 1.63 0.99c0.9 0.55 4.13 0.71 7.19 0.37l5.56-0.62 1.09 2.84c0.6 1.56 3.65 5.58 6.79 8.94s5.78 7.13 5.87 8.37l0.15 2.26 1.02-2.53 1.02-2.54-5.43-7.35zm-20.25-17.86l3.35-1.35-3.7-4.9-3.71-4.9 0.35 3.7 0.35 3.7-2.14 0.76-2.14 0.77-2.37-4.51-2.36-4.5 1.05 3.62c0.58 1.99 1.05 4.88 1.05 6.43v2.8l3.46-0.14c1.9-0.08 4.96-0.75 6.81-1.48zm-8.96-15.52l-1.31-1.31v2.63 2.64l1.31-1.32 1.32-1.32-1.32-1.32zm0.62-13.87c-1.34-4.14-4.58-10.43-7.22-13.97l-4.8-6.42h2.08c1.14 0 2.08-0.89 2.08-1.98v-1.97h-4.02-4.01l-1.15 2.98-1.14 2.98 3.68 5.42c2.02 2.98 4.78 7.64 6.12 10.36l2.45 4.94-0.94-4.94-0.95-4.94 4.08 8.58c2.25 4.72 4.55 8.11 5.12 7.54 0.57-0.56-0.05-4.42-1.38-8.58zm-15.77-18.41v-2.64l1.32 1.32 1.32 1.32-1.32 1.32-1.32 1.32v-2.64zm6.17 20.41c-2.33-4.01-2.89-2.73-0.99 2.24 0.68 1.77 1.65 2.8 2.16 2.29s-0.02-2.55-1.17-4.53zm-123.27-3.98c-1.89-0.49-5.45-0.51-7.91-0.04l-4.47 0.86 7.91 0.04 7.9 0.04-3.43-0.9zm120.39-3.91l-1.31-1.32v2.63 2.64l1.31-1.32 1.32-1.32-1.32-1.31zm-130.79-14.5c-0.68-1.09-1.67-1.98-2.21-1.98-0.55 0-0.44 0.89 0.23 1.98s1.67 1.98 2.21 1.98 0.44-0.89-0.23-1.98zm12.85-2.75c0-0.43-1.38-1.31-3.07-1.96l-3.07-1.17 1.21 1.95c1.16 1.88 4.93 2.78 4.93 1.18zm-14.83-6.61c-2.17-0.54-7.07-3.43-10.87-6.4-6.23-4.87-18.257-12.03-15.816-9.41 0.543 0.58 5.857 4.7 11.806 9.16l10.82 8.11 4.01-0.23 4-0.23-3.95-1zm10.26-13.87l-6.1-6.43-1.9 1.9-1.89 1.89 2.46 2.97 2.46 2.96-1.28 2.06-1.28 2.07h2.84c1.56 0 4.02 1.42 5.46 3.15l2.62 3.16 1.36-3.65 1.35-3.65-6.1-6.43zm483.97-0.87c6.55-3.78 14.33-7.48 17.3-8.23 2.97-0.74 5.38-2 5.36-2.79-0.01-0.8-0.81-2.68-1.76-4.19l-1.74-2.74-5.22 1.32-5.23 1.31-14.26 14.08c-7.84 7.74-12.48 12.73-10.31 11.09 2.18-1.64 9.32-6.07 15.86-9.85zm-356.6-6.54l-1.88-7.91 0.62 9.89c0.34 5.43 0.84 11.22 1.11 12.85l0.5 2.96 0.77-4.94c0.42-2.72-0.08-8.5-1.12-12.85zm-189.64 9.52c-1.428-0.57-3.132-0.5-3.79 0.16s0.51 1.12 2.596 1.04l3.789-0.16-2.595-1.04zm-8.935-1.94l-1.319-1.32-1.318 1.32-1.317 1.32h2.635 2.635l-1.316-1.32zm-17.791-1.98l-1.319-1.32-1.318 1.32-1.317 1.32h2.635 2.635l-1.316-1.32zm76.76-4.61c-0.67-1.09-1.66-1.98-2.21-1.98-0.54 0-0.44 0.89 0.24 1.98 0.67 1.09 1.66 1.98 2.21 1.98 0.54 0 0.44-0.89-0.24-1.98zm-77.585-1.4c-2.445-0.47-6.448-0.47-8.895 0l-4.448 0.86h8.896 8.895l-4.448-0.86zm-22.238-2.56l8.895-1.69-15.597 1.11-15.596 1.1 1.3815-2.23 1.3818-2.24h-6.8733c-3.782 0-8.504 0.67-10.495 1.49l-3.621 1.48 8.895 1.19c13.1 1.74 21.656 1.68 31.629-0.21zm62.169 0.39c-2.275-1.92-20.883-6.75-21.944-5.69-0.905 0.91 16.885 6.99 20.956 7.16l2.866 0.12-1.878-1.59zm-35.951-3.75c-2.43-0.47-6.878-0.48-9.884-0.03l-5.464 0.83 9.884 0.02 9.884 0.03-4.42-0.85zm602.32-3.06c-0.07-4.55-5.54-15.93-5.94-12.35-0.13 1.08-0.54 3.64-0.92 5.68l-0.7 3.71 2.31 3.7c1.27 2.04 2.99 3.71 3.82 3.71 0.82 0 1.47-2 1.43-4.45zm12.3-20.76c5.76-12.11 8.2-17.71 6.05-13.83-0.45 0.81-1.66 1.48-2.68 1.48h-1.86l2.66-5.44 2.67-5.43-0.79-3.48-0.78-3.48 5.95-1.19 5.95-1.19 1-2.61 1-2.6-5.32 0.35-5.32 0.36-6.47 13.6c-3.56 7.48-8.23 16.06-10.38 19.08-2.14 3.02-3.9 5.93-3.9 6.48 0 0.54 1.78 0.53 3.95-0.04l3.95-1.04v3.08c0 1.7-0.89 3.63-1.97 4.3-1.09 0.68-1.98 2.06-1.98 3.09-0.01 4.29 2.29 1.1 8.27-11.49zm-434.07-25.65c-0.65-0.66-1.12 0.51-1.03 2.59l0.15 3.79 1.04-2.59c0.57-1.43 0.5-3.14-0.16-3.79zm8.52-16.85c3.52-6.25 5.99-11.36 5.5-11.36-0.5 0-3.18 2.99-5.97 6.65-2.79 3.65-5.69 9.21-6.45 12.35-0.75 3.14-0.94 5.26-0.43 4.72 0.52-0.54 3.83-6.1 7.35-12.36zm441.6-4.17l1.03-2.68-6.66-17.58c-3.66-9.66-7.24-21.35-7.96-25.97l-1.3-8.4h-2.63c-1.44 0-3.18 0.9-3.86 2l-1.24 2.01-1.85-1.13c-1.01-0.63-1.84-0.6-1.84 0.06s1.36 3.83 3.02 7.04 3.83 5.83 4.84 5.83h1.83l3.29 11.37c1.82 6.25 4.67 14.71 6.34 18.8l3.05 7.43-1.25 1.24-1.24 1.24-1.98-5.22c-2.18-5.71-4.7-7.35-2.7-1.75 1.84 5.17 4.75 8.4 7.57 8.4 1.38 0 2.97-1.21 3.54-2.69zm-428.73-16.39l1.25-3.26-3.08-10.58c-1.69-5.81-3.76-10.57-4.61-10.57s-2.43-2.44-3.52-5.43l-1.98-5.44-0.25 6.76-0.26 6.76 2.68 5.17c1.47 2.84 3.29 8.47 4.05 12.51 0.75 4.04 2.07 7.35 2.92 7.35s2.11-1.47 2.8-3.27zm415.6-2l-1.31-1.32v2.63 2.64l1.31-1.32 1.32-1.32-1.32-1.31zm-5.28-15.91l-2.26-3.53 1.13 3.62c0.63 1.99 1.21 4.66 1.3 5.93l0.15 2.31 0.97-2.4 0.98-2.39-2.27-3.54zm-330.11-32.53c0-0.89-2.22 0.32-4.94 2.68s-4.94 5.18-4.94 6.26v1.97l4.94-4.65c2.72-2.55 4.94-5.37 4.94-6.26zm329.81 5c0.37-0.22-3.06-5.89-7.61-12.59-4.55-6.71-11.21-18.64-14.8-26.52l-6.54-14.33-5.63-2.29c-3.1-1.26-17.2-3.6-31.33-5.21-25.17-2.85-66.94-9.92-70.08-11.87l-1.59-0.98-1.26 6.27-1.25 6.27 1.76 1.76c0.97 0.96 11.43 3.86 23.25 6.43s27.49 6.53 34.81 8.81 17.97 4.6 23.65 5.15l10.34 1.02-1.46-1.47c-0.81-0.81-3.38-1.75-5.71-2.11s-5.42-1.63-6.87-2.83l-2.63-2.18v2.47 2.46l-2.47-1.95c-1.36-1.07-3.8-2.02-5.43-2.11s-5.49-0.54-8.57-1.01l-5.61-0.84-3.29-3.43-3.29-3.43 6.43 3.23 6.42 3.23v-2.27-2.27l2.47 1.95c1.36 1.07 3.81 2.01 5.44 2.09s6.08 0.65 9.88 1.26c3.81 0.62 10.31 1.56 14.45 2.1l7.53 0.98-0.93-1.5c-0.51-0.82 0.32-3.2 1.84-5.29l2.77-3.78 1.5 1.51c0.83 0.84 1.51 3.44 1.51 5.79v4.27l-3.96 3.56-3.95 3.57 4.45-1.23 4.44-1.22v2.12c0 1.16 2.23 4.05 4.95 6.42 2.71 2.36 4.94 5.11 4.94 6.1s1.79 4.08 3.98 6.86c2.19 2.79 3.51 5.53 2.94 6.1-0.56 0.57-2.33-0.68-3.91-2.77l-2.89-3.81-0.01 1.97c-0.02 1.09 1.72 4.2 3.84 6.92 2.13 2.72 3.89 6.06 3.91 7.41l0.05 2.48h2.96 2.97v2.22 2.22l3.45-2.65c1.91-1.46 3.77-2.84 4.14-3.06zm-96.55-52.11c-1.57-0.97-2.4-2.2-1.86-2.75 0.54-0.54 2.27-0.19 3.84 0.78 1.57 0.96 2.4 2.2 1.86 2.75-0.54 0.54-2.27 0.19-3.84-0.78zm-10.87-3.95l-1.22-1.98h1.97c1.09 0 2.53 0.89 3.2 1.98l1.22 1.98h-1.97c-1.09 0-2.53-0.89-3.2-1.98zm-11.86-1.98l-3.96-1.7 5.44-0.13 5.44-0.14v1.97c0 2.32-1.52 2.32-6.92 0zm-13.35-1.36l-3.45-0.9 0.03-2.33c0.01-1.28 0.89-3.66 1.94-5.29l1.92-2.97 0.03 2.47c0.06 4.96 0.37 5.48 4.61 7.84l4.32 2.4-2.97-0.16c-1.63-0.09-4.52-0.56-6.43-1.06zm-292.72 57.37l-1.32-1.32v2.64 2.63l1.32-1.31 1.32-1.32-1.32-1.32zm109.38-13.74c0-0.54-0.89-0.44-1.98 0.23-1.08 0.67-1.97 1.67-1.97 2.21 0 0.55 0.89 0.44 1.97-0.23 1.09-0.67 1.98-1.67 1.98-2.21zm85.36-3.16l-2.34-2.34v2.04c0 2.64 2.34 4.98 3.66 3.66 0.56-0.56-0.03-2.07-1.32-3.36zm-198.29-1.28l4.7-1.32-5.69-2.87c-3.12-1.58-5.97-3.04-6.33-3.26-0.62-0.37 4.38-8.71 8.55-14.25 1.09-1.45 4.38-5.14 7.29-8.2 2.92-3.06 4.87-6 4.33-6.53-0.54-0.54 8.45-10.38 19.98-21.88l20.95-20.9 5.89 1.18c3.25 0.65 6.41 2.01 7.04 3.02l1.14 1.85-3.42 3.78-3.42 3.78 5.37 2.04 5.37 2.04 2.03-1.25 2.03-1.26 1.5 2.42 1.49 2.42 7.67 0.2c4.23 0.11 9.79 1.29 12.37 2.62l4.7 2.42 2.88-1.11 2.88-1.1-2.63-1.68c-1.45-0.92-4.14-1.68-5.98-1.7-1.84-0.01-3.8-0.76-4.36-1.66l-1.01-1.64 12.18 0.71 12.18 0.71 3.04 2.69 3.05 2.68 10.38 1.39c5.71 0.77 10.38 2.05 10.38 2.87 0 0.81 3.34 2.56 7.41 3.89 4.08 1.33 8.75 2.93 10.38 3.55 1.63 0.63-1.8-2.1-7.61-6.06-5.82-3.95-11.82-7.19-13.35-7.19-1.52 0-2.76-0.78-2.76-1.73v-1.73l5.43-0.02c3-0.01 7.11 0.86 9.14 1.93l3.7 1.95-1.55-2.51-1.56-2.51 3.79 1.44 3.78 1.44-2.22-2.24c-2.91-2.93-33.04-10.47-63.59-15.91l-24.3-4.32-1.23 1.23c-1.81 1.81 0.35 3.38 5.13 3.74 2.29 0.17 4.17 1.01 4.17 1.87s1.34 1.56 2.97 1.56h2.96v2.22 2.22l-6.09-1.21-6.09-1.22-3.53 1.88-3.52 1.89 0.44-7.83 0.44-7.84h-8.51-8.51l-11.74 9.77c-6.45 5.37-14.8 13.6-18.55 18.28-3.75 4.69-12.23 16.09-18.84 25.33l-12.02 16.8 0.03 7.41 0.03 7.42 2.27-0.2c1.26-0.11 4.39-0.79 6.97-1.51zm126.77-63.53v-2.63l1.32 1.32 1.31 1.32-1.31 1.31-1.32 1.32v-2.64zm-11.71-2.8c-0.08-2.08 0.38-3.25 1.04-2.59 0.66 0.65 0.73 2.36 0.16 3.79l-1.04 2.59-0.16-3.79zm5.78 0.83v-2.64l1.32 1.32 1.31 1.32-1.31 1.32-1.32 1.32v-2.64zm-26.8-2.15l-1.32-2.15 2.2-2.2 2.2-2.2v4.35c0 2.39-0.4 4.35-0.88 4.35s-1.46-0.97-2.2-2.15zm11.14-0.65c-0.09-2.09 0.38-3.26 1.04-2.6 0.65 0.66 0.72 2.36 0.15 3.79l-1.04 2.6-0.15-3.79zm5.77 0.82v-2.63l1.32 1.31 1.32 1.32-1.32 1.32-1.32 1.32v-2.64zm-11.86-1.98c0-1.08 0.89-1.97 1.98-1.97s1.98 0.89 1.98 1.97c0 1.09-0.89 1.98-1.98 1.98s-1.98-0.89-1.98-1.98zm-9.88-1.97v-2.64l1.32 1.32 1.32 1.32-1.32 1.32-1.32 1.32v-2.64zm315.62 71.82l-1.32-1.32-1.31 1.32-1.32 1.32h2.63 2.64l-1.32-1.32zm-211.51-5.93l-1.32-1.32v2.64 2.63l1.32-1.32 1.32-1.31-1.32-1.32zm54.03 1.2v-2.09l-1.98 1.22c-2.53 1.56-2.53 2.96 0 2.96 1.09 0 1.98-0.94 1.98-2.09zm158.14 1.35c0-0.41-1.55-1.97-3.46-3.46l-3.46-2.71 2.72 3.45c2.58 3.3 4.2 4.34 4.2 2.72zm-156.59-10.88l-0.62-3.2h-2.93-2.94l-0.61 4.29-0.62 4.3 4.17-1.09 4.16-1.09-0.61-3.21zm-240.52-0.73c3.08-5.85 13.93-18.29 15.96-18.29 0.88 0 5.61-4.3 10.5-9.55l8.9-9.56 0.03-4.28 0.03-4.28 1.73 2.73 1.73 2.73 1.47-4.61c0.8-2.54 2.68-5.84 4.17-7.32 1.49-1.49 2.7-3.5 2.7-4.46 0-0.97-3.74 1.7-8.32 5.93-4.58 4.22-9.03 7.25-9.89 6.72l-1.56-0.97v2.29c0 2.84-11.32 13.64-12.78 12.18-0.58-0.58-1.05 0.75-1.05 2.95v3.99l-6.92 9.07c-3.81 4.98-6.92 10.03-6.92 11.21 0 1.19-1.34 2.68-2.97 3.3-3.28 1.26-4.05 4.67-1.05 4.67 1.05 0 2.96-2.01 4.24-4.45zm186.52 0.99c-0.81-1.9-1.58-5.24-1.71-7.42-0.27-4.77-2.72-8.89-5.26-8.89h-1.86v3.84c0 2.11 0.96 4.43 2.14 5.15l2.13 1.32-1.18 4.73-1.19 4.73h4.2 4.21l-1.48-3.46zm-43.41-10.32l-1.23-3.9 9.04-2.28c4.98-1.25 9.62-3.19 10.31-4.32l1.26-2.05-4.26 1.12-4.27 1.11 1.28-2.06 1.28-2.07-6.71 1.17c-3.69 0.63-11.16 1.79-16.6 2.57l-9.88 1.41 6.34 2.61 6.34 2.61 2.13 3.99c1.17 2.19 3.05 3.98 4.17 3.98h2.04l-1.24-3.89zm79.64 0.96c-0.32-0.25-4.96-1.04-10.31-1.74l-9.73-1.27 1.23 1.22c1.89 1.9 13.97 4.16 16.83 3.15 1.41-0.49 2.29-1.1 1.98-1.36zm-22-2.01v-2.96h-2.63c-3.33 0-3.45 3.29-0.17 4.62 1.36 0.55 2.55 1.07 2.64 1.15 0.09 0.09 0.16-1.18 0.16-2.81zm37.75-0.49l-0.75-3.46-2.36 0.49-2.35 0.5v-2.1-2.09l-1.94 1.2-1.93 1.19 2.41 3.86c1.33 2.13 3.6 3.87 5.05 3.87h2.63l-0.76-3.46zm166.78-5.93c1.39-4.08 2.61-7.86 2.7-8.4 0.09-0.55 2.11-6.77 4.49-13.84 4.61-13.7 12.74-52.64 16.08-77.1 1.12-8.15 2.44-23.59 2.94-34.3l0.91-19.48-4.06 8.21-4.07 8.21-12.54 11.08c-6.9 6.09-20.79 16.8-30.88 23.79-23.09 16-59.5 37.77-68.67 41.05-3.85 1.38-17.58 7.06-30.52 12.64-12.94 5.57-23.97 9.7-24.5 9.17s-3.48 3.02-6.56 7.88l-5.61 8.85h-2.35c-1.29 0-1.82 0.53-1.16 1.19 0.65 0.65 7.94-0.82 16.18-3.27l15.01-4.45 7.37 2.33c4.05 1.29 11.81 3.14 17.25 4.12l9.88 1.78 1.88-1.84c1.03-1.01 3.7-1.77 5.93-1.68l4.05 0.16-2.48 1-2.49 1 1.03 1.66 1.03 1.66 5.9-1.69 5.91-1.69v2.59 2.59l11.83-0.52 11.84-0.53-1.23 1.98-1.22 1.99 8.17-0.78 8.16-0.78v1.75 1.76l7.12-1.34 7.11-1.33-1.3 2.1-1.3 2.1h3.18c1.75 0 5.72 1.31 8.83 2.92l5.64 2.92 2.65 5.97c1.45 3.29 3.25 5.98 3.98 5.98 0.74 0 2.49-3.34 3.89-7.41zm-183.92-2.13c-1.19-2.22-2.13-5.21-2.09-6.64l0.06-2.6 2.9 3.84c1.6 2.11 2.97 5.66 3.05 7.9l0.15 4.07 2.37-6.52c1.3-3.59 3.38-7.15 4.63-7.93 1.25-0.77 2.79-4.06 3.43-7.31 0.63-3.25 0.63-4.79-0.01-3.43l-1.17 2.49-1.79-1.11-1.78-1.1 1.17 3.07 1.18 3.06h-2.18-2.19v-3.09-3.1l-4.43 1.4-4.44 1.41 2.56-3.07 2.55-3.08-2.08-1.28c-1.14-0.7-2.07-2.17-2.07-3.26v-1.97l2.06 1.27 2.07 1.28 2.79-2.32 2.79-2.31 2.06 1.27c1.14 0.7 2.07 0.84 2.07 0.3s-0.89-3.31-1.97-6.17l-1.98-5.18-2.28 1.41-2.29 1.41 1.4-2.27 1.4-2.26-6.8-3.24-6.79-3.24-9.16 1.37-9.16 1.37-5.24 4.51-5.23 4.5 1.59 3.77 1.59 3.77 1.51-4.94 1.5-4.94 0.23 3.95c0.12 2.18 0.81 6.18 1.53 8.9l1.3 4.94-3.43-2.82-3.43-2.81 1.44 5.78 1.44 5.78-3.29-2.71c-1.81-1.5-3.3-3.94-3.3-5.44s-0.79-2.72-1.75-2.72h-1.75l-0.86 5.82-0.85 5.83 1.48-0.92c0.82-0.5 2.88 1.08 4.59 3.51l3.09 4.43v5.37c0 2.96 0.83 5.89 1.85 6.51l1.84 1.14 1.24-2.01 1.24-2.01h8.4 8.4l3.84 2.83 3.83 2.84 1.67-1.63 1.67-1.64-2.17-4.03zm-29.5-0.22c0.5-1.57 3.22-4.57 6.04-6.68l5.13-3.83 7.1 1.33 7.1 1.33v1.89c0 1.03-1.34 1.88-2.97 1.88s-2.96-0.82-2.96-1.83v-1.84l-6.21 1.78c-3.41 0.98-7.99 3.36-10.17 5.29l-3.97 3.52 0.91-2.84zm30.69-9.3c-1.58-1.58 0.21-4.66 2.7-4.66 1.02 0 1.86 1.33 1.86 2.96 0 3.06-2.33 3.93-4.56 1.7zm-17.97-5.65l-3.76-2.84 2.26-2.71c1.24-1.5 1.73-3.24 1.1-3.87-0.64-0.63-0.57-3 0.15-5.26l1.3-4.1 2.34 0.07c1.29 0.03 4.48 1.85 7.1 4.03l4.77 3.97-2.17 2.16c-1.18 1.18-4.14 2.26-6.57 2.39l-4.42 0.23-0.84 2.53-0.84 2.53 2.4-0.55 2.41-0.56 0.91 2.47 0.91 2.48-1.65-0.07c-0.91-0.03-3.34-1.34-5.4-2.9zm8.06-11.79c-0.89-2.65-5.76-2.65-6.64 0l-0.68 2.05h4 4l-0.68-2.05zm8.54-7.05c0-1.05 1.33-1.92 2.96-1.92s2.97 0.35 2.97 0.78-1.34 1.29-2.97 1.92l-2.96 1.13v-1.91zm-21.14-4.94l5.54-4.88 5.33 0.19c2.93 0.11 7.55 0.91 10.27 1.79l4.94 1.58-11.69-0.07-11.69-0.07-2.37 3.23c-1.3 1.78-3.15 3.2-4.12 3.17-0.97-0.04 0.74-2.26 3.79-4.94zm12.24 3.02l-3.95-1.69 4.33-0.14c2.39-0.08 4.88 0.75 5.55 1.84l1.23 1.97-1.6-0.14c-0.88-0.07-3.38-0.9-5.56-1.84zm-82.03 31.52v-2.1l-1.98 1.22c-2.53 1.57-2.53 2.97 0 2.97 1.09 0 1.98-0.94 1.98-2.09zm10.74-2.07c-1.32-2.14-8.77-2.38-8.77-0.29 0 0.82 2.22 1.61 4.93 1.77l4.93 0.28-1.09-1.76zm20.23 0.86l-1.32-1.31-1.32 1.31-1.32 1.32h2.64 2.63l-1.31-1.32zm7.56-2.61l1.21-1.95-3.07 1.17c-3.42 1.32-4.05 2.74-1.21 2.74 1.02 0 2.41-0.88 3.07-1.96zm4.07-7.02c-2.77-2.57-5.04-5.61-5.04-6.74 0-1.14-0.89-2.08-1.98-2.08s-1.98 0.76-1.98 1.69c0 2.69 10.71 13.56 12.46 12.64l1.58-0.84-5.04-4.67zm-55.12 3.7l-1.32-1.32-1.32 1.32-1.31 1.32h2.63 2.64l-1.32-1.32zm156.82-1.48c0-1.54-0.53-4.21-1.19-5.92l-1.2-3.11-5.23 1.23c-2.87 0.67-6.07 2-7.11 2.95l-1.87 1.72h4.56 4.56l-1.14 2.97-1.14 2.96h4.88 4.88v-2.8zm-113.46-4.57c-0.66-0.66-1.12 0.51-1.03 2.6l0.15 3.79 1.04-2.6c0.57-1.43 0.5-3.13-0.16-3.79zm69.31-5.81l-1.31-1.32-1.32 1.32-1.32 1.32h2.64 2.63l-1.32-1.32zm-43.81-6.59c-0.68-1.08-1.67-1.97-2.21-1.97-0.55 0-0.44 0.89 0.23 1.97 0.67 1.09 1.67 1.98 2.21 1.98s0.44-0.89-0.23-1.98zm-24.56-7.34c2.63-12.89 15.27-27.25 25.77-29.27 2.35-0.45 4.64-1.2 5.11-1.66 0.46-0.47 5.68 0.28 11.59 1.65s10.75 2.22 10.75 1.87c0-0.34-4.41-2.84-9.81-5.55l-9.81-4.93-6.49 1.86c-3.56 1.02-6.71 1.86-6.99 1.86s-0.5-0.89-0.5-1.98v-1.97h3.83c2.11 0 4.48-1.03 5.25-2.29l1.42-2.29-4.42 1.15-4.42 1.16 0.97-2.51 0.96-2.52-4.76 0.91-4.76 0.91v3.13 3.13l-2.38-2.37c-1.3-1.3-3.13-2.37-4.07-2.37h-1.7l1.23 1.98 1.22 1.97h-2.1c-1.15 0-2.09-0.89-2.09-1.97 0-1.09-0.98-1.98-2.19-1.98h-2.19l1.14 2.96 1.14 2.97h-2.03-2.03l1.24 2.01 1.24 2.01 1.84-1.14 1.84-1.14v3.2 3.2l1.99-1.23 1.99-1.23 1.2 3.11 1.2 3.12-1.99 2.44c-4.4 5.42-10.32 17.63-10.32 21.29v3.9l-4.44 0.03-4.45 0.03 2.96 1.92c1.63 1.05 3.83 1.64 4.9 1.3 1.05-0.34 2.47-3.34 3.16-6.67zm19.48-3.03c-0.24-3.54-0.31-7.99-0.15-9.89l0.28-3.46h3.19 3.19l-0.87 5.93-0.87 5.93h1.64c0.9 0 1.63-1.23 1.63-2.73v-2.74l5.39-3.53 5.39-3.53 6.87-0.28 6.87-0.28 8.99 4.47 9 4.46-6.63-5.64-6.62-5.64-8.69-2.19-8.68-2.18-7.74 1.24-7.75 1.23-7.09 5.85c-3.91 3.22-7.1 6.73-7.1 7.8v1.95l1.79-1.1 1.78-1.1 2.07 5.92c1.13 3.26 2.62 5.93 3.31 5.93 0.68 0 1.04-2.89 0.8-6.42zm-156.24-1.62l-2.03-1.25 10.71-5.24c5.88-2.88 12.39-5.26 14.46-5.3l3.75-0.06-3.95-2.18c-6.34-3.49-14.95-12.08-18.02-17.96l-2.84-5.43h2.03c1.11 0 2.03 0.82 2.03 1.82 0 3.68 10.24 13.85 18.73 18.6l8.72 4.87 10.49 1.36c5.77 0.75 16.55 2.71 23.97 4.35 18.71 4.14 20 1.71 2.33-4.37l-3.95-1.36 3.72-1.39 3.73-1.39-10.15-6.51c-5.58-3.58-10.15-6.97-10.15-7.53 0-0.55 1.78-0.54 3.95 0.02 6.67 1.75 4.4-0.53-4.45-4.46l-8.4-3.74 4.57-0.14 4.56-0.14-1.3-2.1c-0.71-1.15-3.41-2.9-6.01-3.89l-4.71-1.79 1.06-2.76 1.06-2.76-6.53-1.55-6.53-1.56 4.56-0.84 4.56-0.84-2.33-2.82c-1.28-1.54-3.78-2.82-5.55-2.84l-3.22-0.03 2.64-1.67 2.63-1.68-5.34-4.2c-2.93-2.31-6.06-3.75-6.95-3.2s-5.24-0.89-9.68-3.21l-8.06-4.2-6.96 0.81-6.95 0.82 1.09-2.84 1.09-2.84-8.94 1.01-8.93 1v-2.56-2.57l-6.43-1.52c-3.53-0.84-6.87-1.42-7.41-1.29s-2.55 0.84-4.47 1.58l-3.48 1.36 1.31-3.41 1.31-3.41-8.7 0.88c-4.79 0.48-10.48 1.64-12.65 2.57l-3.96 1.69 2.69-3.3 2.69-3.3-4.67-1.74c-6.81-2.55-13.26-1.45-25.18 4.3-2.59 1.25-10.6 7.22-17.79 13.27l-13.09 11-0.1 2.86c-0.06 1.57-0.76 6.11-1.54 10.09l-1.43 7.22 2.99 8.59c1.64 4.73 3 10.01 3.02 11.74 0.02 1.74-1.75 4.76-3.93 6.73l-3.95 3.58v9.72 9.72l34.12-1.39 34.11-1.4 29.13 1.46 29.13 1.45-1.18 1.92-1.19 1.92 4.08-2.55 4.08-2.55-2.02-1.25zm-70.91-54.18l-2.46-2.96 2.99-11.39 2.99-11.4 0.19 5.32c0.11 2.93 1.09 5.87 2.17 6.54l1.98 1.22v5.58 5.57l-2.7 2.24-2.7 2.24-2.46-2.96zm5.89-7.95c0-1.51-0.89-3.29-1.98-3.96l-1.98-1.22v5.18 5.17l1.98-1.22c1.09-0.67 1.98-2.45 1.98-3.95zm23.06-0.33c-0.73-0.73-1.32-2.95-1.32-4.95v-3.62h1.98 1.97v4.94c0 2.72-0.29 4.94-0.65 4.94-0.37 0-1.26-0.59-1.98-1.31zm153.58 63.58c-0.62-1.63-1.48-2.96-1.91-2.96s-0.78 1.33-0.78 2.96 0.86 2.97 1.92 2.97h1.91l-1.14-2.97zm101.42 1.65l-1.32-1.32-1.31 1.32-1.32 1.32h2.63 2.64l-1.32-1.32zm-108.5-6.1c-1.29-2.99-4.1-8.1-6.25-11.36-4.78-7.26-19.6-23.56-28.72-31.6l-6.74-5.94 2.79 4.81c1.53 2.65 5.23 6.95 8.22 9.56l5.44 4.74-0.06 3.29-0.06 3.28-5.09-5.93c-2.79-3.26-6.82-8-8.95-10.53l-3.86-4.59 0.79-2.33 0.78-2.32-8.49-10.87c-4.67-5.98-9.94-12.5-11.71-14.5-3.38-3.81-3.22-6.01 0.28-3.68 1.13 0.76 5.66 6.27 10.07 12.25s10.55 13.1 13.65 15.81l5.62 4.95-6.89-7.91c-3.79-4.35-9.93-12.14-13.64-17.32l-6.75-9.41-10.03-4.74-10.02-4.74-14.83-3.07c-22.01-4.55-49.76-12.06-73.14-19.81l-20.75-6.87-0.69 4.25-0.69 4.25 2.39 0.8 2.4 0.8-2.7 1.71-2.69 1.7 2.41 0.04 2.41 0.03-1.1 2.85-1.09 2.85 3.63-0.01c1.99 0 8.52 1.43 14.5 3.19l10.87 3.18 9.88-1.14 9.89-1.14-2.74 1.81-2.73 1.81 6.69 1.37c12.72 2.6 46.07 12.95 48.02 14.9 1.07 1.07 3.65 1.95 5.72 1.95h3.77l-1.14-2.96c-1.56-4.07 0.56-8.9 3.89-8.9h2.76v2.57c0 1.41-1.02 3.58-2.26 4.83l-2.25 2.25 5.71 6.26c6.74 7.37 8.37 8.93 13.62 12.97 2.18 1.67 2.85 2.48 1.49 1.79s-2.47-0.73-2.47-0.09 6.79 9.14 15.08 18.9l15.09 17.73h2.7c5.04 0 5.67-0.59 5.05-4.75l-0.62-4.14 4.58 5.27c8.85 10.19 11.2 13.23 13.31 17.17 1.17 2.19 2.13 4.53 2.13 5.19 0 0.67-2.22-1.01-4.94-3.73s-4.94-5.73-4.94-6.7-1.67-3.27-3.71-5.12l-3.71-3.36-1.02 2.66-1.01 2.65 5.8 7.81 5.81 7.81 4.36 1.28c2.39 0.71 5.45 1.38 6.78 1.49l2.43 0.19-2.33-5.44zm-160.02-97.42c-2.83-1.65-7.35-2.54-18.69-3.66l-2.22-0.22v-4.95c0-2.71 0.3-4.94 0.66-4.94 0.37 0 2.59 2 4.95 4.45l4.28 4.45 0.83-2.27 0.84-2.26 10.25 3.74c5.64 2.07 10.49 3.75 10.78 3.75 0.28 0 0.52 0.89 0.52 1.98v1.98l-4.45-0.06c-2.44-0.04-5.93-0.93-7.75-1.99zm7.59-1.25l-1.32-1.32-1.32 1.32-1.32 1.32h2.64 2.63l-1.31-1.32zm-5.93-1.98l-1.32-1.32-1.32 1.32-1.32 1.32h2.64 2.63l-1.31-1.32zm-5.93-1.97l-1.32-1.32-1.32 1.32-1.32 1.32h2.64 2.63l-1.31-1.32zm343.28 84.96c11.06-5.05 23.39-11.34 27.39-13.98l7.28-4.78-0.43-27.01-0.43-27-2.46-4.43-2.46-4.43-3.89 2.43-3.9 2.43 0.06 2.99 0.06 2.98 2.63-3.46c4.03-5.3 6.04-4.11 2.41 1.43l-3.21 4.89-0.88 15.37c-0.49 8.46-0.93 20.32-0.98 26.36l-0.09 10.99-2.88 3.84-2.88 3.83 0.86-9.88c0.48-5.44 1.26-18.79 1.74-29.68s1.17-21.07 1.52-22.62l0.65-2.81-2.96-0.66-2.97-0.66-0.28 6.47c-0.4 9.32-0.66 45.47-0.35 48.97 0.15 1.64 0.13 4.53-0.05 6.43l-0.31 3.46h-2.2-2.2l0.87-5.93 0.87-5.93h-1.34-1.34l0.61-10.94 0.6-10.93-2.08 1.29-2.09 1.29 1.95-3.7c1.07-2.03 2.58-9.23 3.35-15.99l1.4-12.29-7.87 4.31-7.87 4.31 0.97 2.54 0.98 2.55h-6.02-6.03l-1.28 2.06-1.27 2.07 2.39 2.88c2.75 3.31 1.22 3.71-3.84 1l-3.51-1.88-7.29 4.95-7.28 4.95 1.2 1.95 1.21 1.95-2.54 14.18-2.53 14.19-5.54 5.8c-3.05 3.18-5.54 6.55-5.54 7.47 0 0.93 1.03 1.69 2.28 1.69h2.29l-3.58 3.95-3.58 3.95h2.68 2.68l-2.38 2.38c-1.3 1.3-2.37 3.02-2.37 3.81 0.01 2.02 28.08-8.44 52.05-19.4zm-57.97 16.07c0-0.49-0.89-0.88-1.98-0.88-1.08 0-1.97 0.95-1.97 2.1v2.09l1.97-1.22c1.09-0.67 1.98-1.61 1.98-2.09zm-119.45-7.2c-1.71-2.44-3.11-3.84-3.11-3.11 0 0.74 1.08 3.71 2.39 6.6l2.4 5.26 0.72-2.15c0.39-1.18-0.68-4.15-2.4-6.6zm63.44 6.98l-1.32-1.32-1.31 1.32-1.32 1.32h2.63 2.64l-1.32-1.32zm41.01-6.56l-1.95-1.96-0.32 4.23-0.32 4.22 2.27-2.27 2.27-2.27-1.95-1.95zm15.57-2.01l1.04-3.95-1.79 1.11c-0.99 0.61-1.8 2.39-1.8 3.95 0 1.57 0.35 2.85 0.76 2.85 0.42 0 1.22-1.78 1.79-3.96zm-123.13-5.78c0-1.01-1.55-3.39-3.46-5.29l-3.46-3.46-2.51-11.02c-1.39-6.06-3.39-14.97-4.46-19.8l-1.94-8.79-2.41-1.48c-1.32-0.82-1.9-1.98-1.3-2.59 0.61-0.61-0.44-7.33-2.34-14.95l-3.44-13.84 0.98-3.74 0.98-3.74-2.3-4.28-2.29-4.28-2.33 1.89c-1.28 1.04-4.11 2.33-6.29 2.86l-3.95 0.97 6.31 0.23c3.46 0.13 6.7 0.9 7.18 1.72 0.48 0.81 0.11 3.48-0.81 5.93l-1.68 4.44h-5.08-5.07l2.36 4.41c1.29 2.42 3.55 5.6 5.01 7.06l2.65 2.65 0.03 8.26 0.03 8.26 2.01 2.97 2 2.96-1.3-5.93-1.31-5.93 1.9 1.98c1.89 1.96 8.5 21.46 8.5 25.05v1.87l-1.98-1.22c-1.09-0.67-1.98-0.83-1.98-0.34 0 2.58 6.09 11.89 12.96 19.82 4.29 4.95 8.02 9.04 8.29 9.09 0.28 0.05 0.5-0.73 0.5-1.74zm28.66-2.12c-1.56-2.53-2.96-2.53-2.96 0 0 1.09 0.94 1.98 2.09 1.98h2.1l-1.23-1.98zm97.85-6.42v-1.97l-2.96 2.46-2.97 2.46v-2.11c0-1.16 1.61-3.27 3.59-4.69 1.97-1.42 4.33-3.83 5.25-5.36l1.67-2.78-4.27 1.11-4.26 1.11v-1.66c0-0.91 1.78-2.22 3.96-2.91 2.17-0.69 4.92-3.06 6.1-5.26l2.14-4.01-4.12 1.31c-5.84 1.86-5.14-0.65 0.82-2.91l4.94-1.88v-5.11-5.1l-1.98 1.22-1.97 1.22v-1.93c0-1.06 0.86-2.23 1.92-2.59l1.93-0.66-1.24-4.74-1.25-4.74-2.27 3.11-2.26 3.1-3.85-0.34-3.85-0.34-0.21 3.95c-0.12 2.18-0.88 5.51-1.69 7.42l-1.49 3.46 1.14 2.96 1.14 2.97h-2.2-2.2l1.21 11.53c0.66 6.34 1.78 13.03 2.49 14.87l1.28 3.35 2.74-2.27c1.49-1.25 2.72-3.16 2.72-4.25zm2.97-31.14c0.67-1.09 2.11-1.98 3.2-1.98h1.97l-1.22 1.98c-0.67 1.09-2.11 1.98-3.2 1.98h-1.97l1.22-1.98zm-97.85 33.61c0-1.09-0.94-1.98-2.09-1.98h-2.1l1.22 1.98c1.57 2.53 2.97 2.53 2.97 0zm-261.76-9.4c-2.16-2.15-2.97 0.66-1.61 5.53l1.36 4.85 0.7-4.61c0.38-2.54 0.18-5.14-0.45-5.77zm340.05 2.02c-0.66-0.65-1.13 0.51-1.04 2.6l0.16 3.79 1.03-2.6c0.57-1.42 0.5-3.13-0.15-3.79zm29.01-7.45c1.67-5.44 3.47-11.89 4.01-14.33l1-4.45-1.72 1.06c-0.95 0.58-2.33 4.36-3.07 8.4s-2.59 10.9-4.11 15.23l-2.76 7.89 1.82-1.96c1-1.07 3.17-6.4 4.83-11.84zm-141.56-0.33l-1.32-1.32v2.64 2.63l1.32-1.32 1.31-1.31-1.31-1.32zm18.79 0.48c1.81-0.79 4.48-1.62 5.93-1.84 1.44-0.22 3.83-1.15 5.31-2.08l2.7-1.68 1.88 2.73 1.89 2.72-1.22-4.94-1.22-4.94 2.77 3.42c3.21 3.98 5.63 2.64 3.84-2.14l-1.22-3.26 3.38 2.75 3.38 2.75-1.37-3.57-1.37-3.57 2.31 1.43 2.32 1.43v-2.34-2.33l2.81 2.33 2.8 2.33-1-3.82-0.99-3.82 4.38 0.25 4.38 0.25 0.59-5.44 0.59-5.44-3.32-0.2c-7.27-0.46-15.44 0.72-22.06 3.2-7.32 2.73-13.88 3.18-13.88 0.96 0-0.73-1.91-1.18-4.25-1l-4.25 0.31-5.64 6.3c-3.09 3.47-5.6 7.41-5.55 8.75l0.08 2.44 2.95-5.44c1.62-2.99 3.66-5.43 4.52-5.43h1.58l-0.22 6.8-0.23 6.81 2.54-2.11c1.4-1.16 2.54-1.52 2.54-0.8 0 0.71-1.39 3.42-3.09 6.01l-3.09 4.72 2.59-0.54c1.43-0.29 4.09-1.17 5.91-1.96zm95.26-3.44c-0.94-1.45-2.77-8.87-4.08-16.48l-2.37-13.84 0.65 9.39 0.64 9.39h-1.61-1.62l3.09 9.06 3.08 9.05 1.96-1.96 1.96-1.96-1.7-2.65zm109.95-5.23l-0.03-5.32-1.92 2.97c-1.05 1.63-1.93 4.57-1.95 6.54l-0.03 3.57 1.98-1.22 1.98-1.22-0.03-5.32zm-222.03 2.26l-1.32-1.32v2.64 2.63l1.32-1.32 1.32-1.31-1.32-1.32zm8.5-5.48c0.04-1.03-1.24-0.14-2.84 1.97-1.59 2.11-2.93 4.68-2.96 5.7-0.03 1.03 1.24 0.13 2.84-1.97 1.6-2.12 2.93-4.68 2.96-5.7zm240.05-9.56c10.87-7.52 24.54-17.74 30.36-22.71l10.59-9.05 4.95-8.45 4.95-8.44 0.11-8.21 0.11-8.2-9.55-9.7-9.55-9.7h-3.14c-1.72 0-3.99-0.85-5.04-1.9-3.56-3.56-43.32-17.43-59.24-20.66-8.73-1.77-26.96-4.52-40.52-6.12s-25.16-2.92-25.79-2.93-0.74 2.74-0.24 6.12l0.9 6.13 1.23-1.98c1.23-1.99 5.1-3.05 9.53-2.61 1.31 0.13 5.01 4.01 8.23 8.63s12.16 15.04 19.86 23.15c7.71 8.11 14.01 15.57 14.01 16.59 0 1.82-19.25-15.21-26.32-23.28l-3.59-4.1 2.18 4.45c1.19 2.44 1.7 4.45 1.12 4.45s0.88 1.94 3.26 4.32l4.33 4.33-2.23 0.74-2.22 0.74-4.56-4.56-4.56-4.56 0.65-2.98 0.64-2.97-2.2 2.14-2.21 2.14 1.12 2.8c0.61 1.54 6.87 7.07 13.92 12.29l12.81 9.49 11.98-5.37 11.98-5.38 5.25 1.85 5.26 1.85 2.63 4.91 2.63 4.9-1.01 20.57-1.02 20.57 2.11 3.94 2.11 3.95-3.14-1.2-3.15-1.21 1.21 8.81 1.21 8.82h-2.09-2.09l-1.19-5.44c-1.83-8.36-0.97-23.9 2.07-37.68 1.52-6.86 2.76-13.31 2.76-14.33s-0.76-1.86-1.7-1.86h-1.7l-1.3 11.08c-0.72 6.1-2.26 12.86-3.42 15.03l-2.11 3.94 2.35 16.6 2.36 16.59 2.17-1.34c1.19-0.74 11.07-7.49 21.94-15zm-240.56-6.67l9.1-8.85 10.07-5.1 10.07-5.11 14.93-0.21 14.93-0.2 11.76 5.97 11.75 5.98 6.43 9.56c3.53 5.27 6.42 9.11 6.42 8.53 0-0.57-1.26-7.62-2.8-15.67l-2.8-14.64-6.57-16.67c-3.61-9.17-6.6-17.56-6.64-18.65-0.04-1.08-0.78-3.11-1.65-4.49l-1.57-2.52 1-5.39c0.55-2.96 1.54-8.72 2.21-12.8l1.21-7.41h2.97 2.96l-1.35 7.41c-0.75 4.08-2.04 9.26-2.87 11.5l-1.52 4.1 2.28 7.27c1.25 4 2.92 7.28 3.71 7.28h1.43l-1.14-2.97-1.14-2.96h3.18 3.17v1.97c0 1.09 0.96 1.98 2.12 1.98 3.15 0 7.77-5.21 7.77-8.76v-3.1h-3.81-3.81l-0.91-3.46-0.9-3.46-0.23 5.44-0.23 5.43h-3.83c-2.11 0-4.35-0.82-4.97-1.83l-1.14-1.84 3.8-1.2c2.09-0.67 4.45-2.73 5.25-4.59 0.79-1.86 1.78-8.28 2.19-14.26s1.19-13.98 1.74-17.79c1.71-11.78 2.26-16.6 2.58-22.35l0.31-5.56 1.83 1.13 1.82 1.13-0.8 15.3-0.79 15.29 1.66-6.26c0.9-3.44 2.27-14.78 3.04-25.2l1.39-18.94h-1.82-1.82l0.91 4.76 0.91 4.77-2.11 3.63-2.12 3.64-0.29-3.95c-0.36-4.84-0.41-3.86 0.86-15.83 0.58-5.45 1.68-11.54 2.45-13.55l1.39-3.64-2.76-1.75-2.75-1.74 5.47-0.04 5.47-0.03-1.04 5.44-1.04 5.44 2.27-5.79 2.27-5.78-4.15-3.36c-2.28-1.85-3.63-3.89-2.99-4.53s2.83-0.27 4.86 0.82l3.69 1.97 0.23-1.55c0.13-0.85 0.44-2.44 0.69-3.53 0.25-1.08 0.61-3.31 0.79-4.94l0.33-2.96 1.63 2.56 1.62 2.56 2.8-3.43 2.79-3.44-2.48 1.48-2.47 1.49v-1.66c0-0.9 2.64-3.96 5.85-6.78l5.85-5.14 1.24 1.24 1.23 1.23-0.66-2.87-0.66-2.88 2.31-0.09c1.27-0.05 3.05-0.9 3.95-1.89l1.65-1.8-2.47 1.42-2.47 1.42 0.03-1.59c0.02-0.88 2.25-3.7 4.94-6.26 2.7-2.56 4.91-5.45 4.91-6.42 0-0.98 0.93-1.77 2.07-1.77s6.91-5.05 12.84-11.213l10.77-11.214 1.33 1.334 1.34 1.334 3.62-3.275c1.99-1.803 3.62-4.77 3.62-6.593v-3.317h-3.01c-1.66 0-4.73 1.854-6.82 4.118-2.09 2.265-19.19 19.466-38 38.216l-34.21 34.09-2.2 23.23c-1.21 12.78-3.33 31.24-4.7 41.02l-2.49 17.8-1.96 1.97-1.96 1.98 0.89-9.88 0.88-9.89-23.88 0.46c-13.14 0.25-36.78 1.34-52.54 2.43-60.63 4.18-72.36 4.86-78.73 4.57l-6.56-0.3 2.26 2.73 2.27 2.73 2.82-1.09 2.82-1.08v5.22 5.21l2.89 1.11c1.59 0.61 3.43 2.82 4.09 4.91l1.21 3.8 1.83-1.13 1.84-1.14v3.27 3.27l3.52 0.92 3.53 0.92 2.57 5.81c1.41 3.2 3.3 5.81 4.2 5.81h1.62l-1.03-3.95-1.03-3.95h2.2 2.21l0.23 3.45c0.13 1.91 0.11 4.19-0.04 5.09-0.16 0.89 1.69 3.21 4.09 5.16l4.37 3.54 0.7 12.56c0.39 6.91 1.36 13.04 2.17 13.62 0.8 0.58 1.57 3.28 1.7 6 0.13 2.71 1.29 9.16 2.57 14.33l2.32 9.39h2.92 2.92l-1.26 2.05-1.27 2.05 1.46 8.33 1.46 8.32 1.77-6.59 1.77-6.6 9.1-8.85zm79.8-100.36c-0.08-2.08 0.39-3.25 1.04-2.59 0.66 0.65 0.73 2.36 0.16 3.79l-1.04 2.59-0.16-3.79zm24.89 118.12l-1.32-1.32v2.63 2.64l1.32-1.32 1.32-1.32-1.32-1.31zm-141.42-7.79l-3.22-7.13-0.66 3.32-0.67 3.33 3.45 3.8c1.89 2.09 3.64 3.81 3.88 3.81s-1.01-3.21-2.78-7.13zm143.4-2.1l-1.32-1.32v2.64 2.64l1.32-1.32 1.31-1.32-1.31-1.32zm-51.73-2.63c-0.67-1.09-1.67-1.98-2.21-1.98s-0.44 0.89 0.23 1.98c0.67 1.08 1.67 1.97 2.21 1.97 0.55 0 0.44-0.89-0.23-1.97zm24.71-6.68c0-0.41-1.56-1.97-3.46-3.46l-3.46-2.71 2.71 3.46c2.58 3.29 4.21 4.34 4.21 2.71zm52.57-8.14c-1.73-2.65-3.15-5.1-3.15-5.44 0-0.35 1.71-0.64 3.81-0.64h3.81l-0.88 1.42c-0.48 0.77 0.05 1.98 1.18 2.68l2.06 1.28-0.54-2.33-0.54-2.32 6.5-0.78c6.21-0.75 8.25-1.87 16-8.83l3.44-3.09 2.35 0.78 2.35 0.79v-2-1.99l7 0.65 7.01 0.65-2.41-2.9-2.41-2.9 5.37 1.35 5.37 1.35 3.38-2.95c1.85-1.62 8.05-4.46 13.77-6.33l10.39-3.38-1.46-2.31c-0.81-1.26-1.49-3.18-1.5-4.25-0.02-1.07-1.43-2.22-3.14-2.55l-3.1-0.6-26.55 12.68c-42.31 20.21-52.94 25.03-55.13 25.03-1.14 0-2.06 0.54-2.06 1.2s2.22 2.95 4.94 5.09l4.94 3.88 0.16 3.32 0.15 3.32 1.02-2.54 1.02-2.53-3.15-4.81zm12 1.64l-1.31-1.32v2.64 2.63l1.31-1.32 1.32-1.32-1.32-1.31zm-187.8-5.11l-1-2.47v4.94 4.94l1-2.47c0.55-1.35 0.55-3.58 0-4.94zm142.96-7.05l0.04-8.53-2.05-3.82c-1.12-2.1-3.25-3.82-4.71-3.82h-2.67l-1.14-4.37c-0.62-2.4-1.65-3.84-2.28-3.22-0.62 0.63 1.12 7.86 3.88 16.08 2.76 8.21 5.03 16.56 5.04 18.54l0.04 3.61 1.91-2.97 1.92-2.96 0.02-8.54zm-64.21 7.5l5.93-1.53-4.94-0.13-4.94-0.13-4.94 3.03-4.95 3.03 3.96-1.37c2.17-0.75 6.62-2.06 9.88-2.9zm31.63 2.02c-0.67-1.08-2.28-1.96-3.58-1.94l-2.35 0.03 2.96 1.91c1.64 1.06 3.24 1.93 3.58 1.95s0.06-0.86-0.61-1.95zm89.84-3.56c0.6-0.85 5.84-3.85 11.64-6.67l10.54-5.14-1.96-1.22-1.97-1.21-3.13 1.2-3.13 1.2 1.3 2.11 1.3 2.1-3.16-1.21-3.17-1.21-0.62 1.71c-0.34 0.95-1.95 2.01-3.58 2.36-1.63 0.36-3.41 1.22-3.96 1.93-0.54 0.7-4.1 2.71-7.9 4.46l-6.92 3.19 6.82-1.04c3.75-0.57 7.31-1.72 7.9-2.56zm-99.72-0.39c-2.18-0.94-6.63-1.66-9.89-1.61l-5.93 0.1 5.93 1.51c3.26 0.83 7.71 1.55 9.89 1.6l3.95 0.1-3.95-1.7zm-102.47-5.27l-1.31-1.32v2.64 2.63l1.31-1.32 1.32-1.32-1.32-1.31zm183.78-5.59c3.12-1.63 5.22-3.03 4.68-3.12-0.55-0.09-2.4-0.44-4.12-0.78l-3.12-0.61-2.33 3.73c-1.28 2.05-1.98 3.73-1.55 3.73s3.33-1.33 6.44-2.95zm20.25-13.38l2.72-3.84 1.77 2.67 1.76 2.68 2.7-3.54c1.49-1.94 3.47-3.39 4.41-3.22 3.55 0.64 6.65-0.22 6.65-1.85 0-1.94-21.05-18.08-23.57-18.08-1.8 0-8.06 23-8.06 29.63v4.12l4.45-2.36c2.44-1.3 5.67-4.09 7.17-6.21zm-57.75 3.15l-1.31-1.32v2.64 2.64l1.31-1.32 1.32-1.32-1.32-1.32zm3.83-2.1c-0.65-0.65-1.12 0.51-1.03 2.6l0.15 3.79 1.04-2.6c0.57-1.42 0.5-3.13-0.16-3.79zm48.2-36.24c0.02-1.69 1.98-5.18 4.37-7.74l4.34-4.66-4.55 1.19-4.54 1.19 0.92-4.8 0.91-4.79-2.66-2.21-2.67-2.21-2.99 1.14c-1.64 0.64-2.99 2.07-2.99 3.19s1.69 3.73 3.76 5.8l3.76 3.76-0.59 9.37-0.59 9.37 1.74-2.75c0.96-1.52 1.76-4.15 1.78-5.85zm-263.22-46.73l-2.09-2.52-1.75 1.08c-3.02 1.87-1.92 3.96 2.09 3.96h3.84l-2.09-2.52zm-8.56-0.59c-0.67-1.08-1.66-1.97-2.21-1.97-0.54 0-0.44 0.89 0.24 1.97 0.67 1.09 1.66 1.98 2.21 1.98 0.54 0 0.44-0.89-0.24-1.98zm-25.36-17.13l-1.32-1.32v2.64 2.63l1.32-1.31 1.31-1.32-1.31-1.32zm249.67-17.46v-1.98l-1.92 2.97c-1.06 1.63-1.92 3.85-1.92 4.94v1.98l1.92-2.97c1.05-1.63 1.92-3.85 1.92-4.94zm125.77 560.34c-5.28-1.59-39.99-6.43-63.45-8.86-10.99-1.14-25.38-4.39-20.75-4.69 5.94-0.39 68.41 5.86 76.1 7.61 15.14 3.44 23.06 5.68 24.21 6.83 1.71 1.71-9.47 1.09-16.11-0.89zm-596.18-6.35v-5.06l17.297-6.29 17.296-6.29 10.873-1.07 10.872-1.07-2.123 2.28-2.123 2.27-10.726 1.78c-11.509 1.91-32.249 10.34-37.907 15.41l-3.4589 3.1v-5.06zm75.117-1.16c0-0.93 3.558-3.1 7.907-4.81l7.907-3.1v1.81c0 1.01-0.336 1.82-0.747 1.82s-3.969 1.35-7.907 2.99l-7.16 3v-1.71zm377.57 0.02v-1.97l17.29-1.2c9.52-0.67 20.64-1.55 24.71-1.97l7.42-0.76-1.04 1.67c-1.13 1.83-9.54 3.1-33.06 4.98l-15.32 1.22v-1.97zm-239.19-2.11c0-0.97 1.55-2.4 3.46-3.17 4.6-1.87 30.66-10.88 31.48-10.88 0.35 0 0.64 0.85 0.64 1.89 0 1.03-2.89 2.71-6.43 3.72-3.53 1.01-11.12 3.72-16.87 6.02s-10.86 4.19-11.37 4.19c-0.5 0-0.91-0.8-0.91-1.77zm-91.92-4.43c-22.94-3.41-45.777-8.07-77.097-15.74-17.395-4.25-35.558-8.92-40.363-10.37l-8.7356-2.63 2.1863-1.35 2.1863-1.35 14.391 1.14 14.391 1.15 12.914 5.59c7.102 3.08 15.025 6.23 17.607 7.02l4.695 1.42 1.561-2.53 1.564-2.53 21.646-0.89 21.644-0.89 1.37 2.22 1.38 2.22-13.46 0.17c-7.408 0.09-17.912 0.78-23.348 1.52l-9.884 1.35 19.767 4.28c10.875 2.36 27.555 5.41 37.065 6.79l17.3 2.49v1.58c0 1.84-2.61 1.75-18.78-0.66zm-91.553-24.8c-1.427-0.58-3.131-0.5-3.789 0.15-0.658 0.66 0.51 1.12 2.595 1.04l3.79-0.16-2.596-1.03zm-8.808-2c-1.924-0.5-4.592-0.47-5.931 0.07l-2.433 0.99 5.93-0.08 5.931-0.07-3.497-0.91zm483.52 27.72l1.32-1.31 1.32 1.31 1.32 1.32h-2.64-2.64l1.32-1.32zm168.36-11.62c-4.35-1.59-15.82-4.19-25.49-5.79-9.66-1.6-18.04-3.38-18.61-3.95-2.12-2.12 12.12-0.94 25.56 2.12 7.63 1.73 14.4 2.62 15.05 1.97 0.65-0.64-0.45-1.17-2.45-1.17-1.99 0-3.08-0.54-2.42-1.2 0.65-0.66 9.25 0.37 19.1 2.27l17.92 3.46v1.69c0 0.92-0.67 1.67-1.48 1.66-0.82-0.01-6.38-1.34-12.36-2.94-5.98-1.61-12.21-2.84-13.84-2.75s1.93 1.78 7.91 3.74l10.87 3.56-5.93 0.11c-3.26 0.06-9.49-1.19-13.83-2.78zm-397.28-2.78l-1.16-1.88 7.47-1.89c4.11-1.03 11.03-2.83 15.38-3.99l7.91-2.12-14.37 1.07c-14.72 1.08-22.2-0.02-22.2-3.28v-1.84h11.72c17.99 0 71.43-7.44 98.96-13.77l24.69-5.69 1.3 2.11 1.3 2.1 4.91-7.69c2.7-4.24 7.01-9.55 9.59-11.82 2.57-2.26 8.96-6.56 14.18-9.54l9.51-5.42 6.91 5.28 6.92 5.27 22.22-10.89 22.22-10.88 10.23-9.2 10.23-9.2 2.03-7.28 2.03-7.28-4.94-9.57c-2.72-5.26-4.94-10.77-4.94-12.23v-2.66l-13.15 7.99c-27.19 16.52-70.05 33.92-114.01 46.3-20.61 5.8-47.74 11.34-76.3 15.56l-20.61 3.05h-16.34-16.34l-1.04-1.69-1.04-1.68 21.49-1.31c26.24-1.59 59.64-5.91 78.21-10.12 20.41-4.62 55.37-14.58 71.16-20.27 34.75-12.52 64.02-26.82 91.92-44.92 17.46-11.32 50.61-38.06 60.37-48.7 6.05-6.59 23.98-29.67 31.97-41.15 0.31-0.46 1.15-0.25 1.86 0.46l1.29 1.29-6.94 10.41c-11.46 17.2-26.41 33.68-44.56 49.14-16.5 14.06-41.04 32.76-44.5 33.92l-1.66 0.55 2.98 6.89 2.99 6.88 0.08-4.34 0.07-4.33 4.88-5.55c2.69-3.05 4.9-4.66 4.92-3.57s-2.19 5.89-4.93 10.66l-4.96 8.69 3.25 3.59 3.24 3.59-1.25 5.52-1.26 5.51 7.47-13.84c8.71-16.15 20.26-33.29 21.55-31.99 0.5 0.49-2.73 6.52-7.16 13.38l-8.07 12.49 0.93 2.42 0.93 2.42-3 2.49c-1.64 1.36-4.73 5.91-6.87 10.09l-3.89 7.62-1.76-1.09-1.76-1.08-1.23 3.89c-1.89 5.94-18.63 20.01-33.8 28.4-7.49 4.13-17.85 8.91-23.04 10.6-5.18 1.7-9.42 3.8-9.42 4.68v1.59l13.34 1.45c7.34 0.8 20.19 1.54 28.56 1.64l15.22 0.19-1.38 1.27c-0.76 0.7-6.12 2.26-11.92 3.47l-10.53 2.2-12.45-1.98c-6.85-1.1-15.45-3.25-19.12-4.79-3.66-1.53-8.82-5.09-11.46-7.9-2.63-2.82-6.11-5.12-7.73-5.12s-6.85 2.29-11.63 5.1l-8.69 5.09-8.78 11.93-8.78 11.92v-3.18c0-1.75-0.35-3.18-0.79-3.18-0.42 0-6.43 1.67-13.34 3.71-22.89 6.75-41.67 10.23-79.77 14.76l-5.93 0.7 7.41 0.3 7.41 0.3v1.57 1.58l-19.29 4.36c-10.61 2.39-20.34 4.35-21.63 4.35-1.28 0-2.85-0.85-3.49-1.89zm110.78-7.74c2.35-2.57 22.75-8.84 42.36-13.02l12.85-2.73 24.71-0.38c13.59-0.2 30.05-0.14 36.57 0.13l11.86 0.51-11.86 1.47c-6.52 0.81-20.96 1.57-32.08 1.69-11.12 0.11-26.69 1.16-34.6 2.33-12.05 1.77-37.75 7.73-48.96 11.34l-2.96 0.96 2.11-2.3zm270.23 0.53c0.65-0.66 2.36-0.73 3.79-0.16l2.59 1.04-3.79 0.15c-2.08 0.09-3.25-0.38-2.59-1.03zm-550.08-5.08c-10.33-0.95-23.67-2.57-29.65-3.58l-10.872-1.84 27.672 0.9c15.22 0.5 29.67 1.45 32.1 2.12l4.43 1.21-1.08 1.75c-0.6 0.97-1.7 1.63-2.45 1.47s-9.82-1.07-20.15-2.03zm475.26-3.86l-1.27-2.06 1.39-14.81 1.39-14.81 1.3 1.3c0.71 0.72 1.45 3.68 1.64 6.58 0.18 2.89 0.95 9.36 1.7 14.36l1.37 9.09-3.13 1.2-3.12 1.2-1.27-2.05zm2.45-8.16l-1-2.47v4.94 4.95l1-2.47c0.55-1.36 0.55-3.59 0-4.95zm-534.62 2.38l-4.524-1.81-41.463-0.27-41.465-0.27-0.927-1.5-0.927-1.5 6.146-1.23c3.378-0.68 20.489-1.22 38.019-1.21l31.875 0.03 10.673 2.84c5.869 1.56 11.607 3.77 12.75 4.91l2.08 2.08-3.855-0.12c-2.123-0.07-5.893-0.95-8.382-1.95zm367.26-13.48c0-2.49 23.08-12.12 29.04-12.12h5.05l-2.46 2.96c-1.35 1.63-3.92 2.97-5.7 2.97-1.79 0-8.12 1.78-14.07 3.95-5.94 2.18-11.05 3.95-11.33 3.95-0.29 0-0.53-0.77-0.53-1.71zm-528.71-25.56c-2.09-2.09-0.98-3.76 4.01-6.03 9.713-4.42 43.436-16.71 53.245-19.4l9.884-2.71 26.686-0.87 26.687-0.88-9.8843 1.73c-5.4361 0.95-16.419 2.7-24.405 3.89-16.825 2.51-55.314 13.28-72.981 20.41-6.701 2.7-12.662 4.44-13.242 3.86zm620-7.7l0.64-3.34 10.87-8.51c5.98-4.67 15.76-12.79 21.74-18.02 5.98-5.24 13.98-11.85 17.79-14.7 6.93-5.18 41.63-23.25 44.65-23.25h1.61l-1.88 1.75c-1.03 0.97-8.11 5.11-15.72 9.2-15.22 8.2-34.05 20.18-35.57 22.64-0.53 0.87 7.25-1.54 17.3-5.35 25-9.48 32.4-11.7 44.47-13.35l10.37-1.42v1.91 1.92l-6.17 1.23c-3.4 0.68-8.36 1.24-11.03 1.24s-10.34 2.13-17.05 4.73-18.71 7.21-26.67 10.25l-14.47 5.52-8.26 7.08c-4.55 3.9-10.62 8.28-13.49 9.75-2.88 1.46-7.13 5.22-9.45 8.36l-4.22 5.71h-3.06-3.05l0.65-3.35zm32.29-6.58c0.69-1.11 6.3-4.54 12.47-7.61l11.22-5.6 19.77-5.03c10.87-2.77 24.22-5.66 29.65-6.41l9.89-1.37-1.37 1.39c-0.76 0.76-14.74 4.79-31.08 8.95l-29.71 7.55-10.1 5.08c-5.56 2.79-10.53 5.07-11.04 5.07-0.53 0-0.39-0.91 0.3-2.02zm-329.19-10.91l-2.03-5.35 1.25-6.7c0.69-3.68 2.06-7.19 3.04-7.8l1.79-1.1-1.14-1.84-1.14-1.84h2.16c1.18 0 2.71 1.44 3.38 3.21l1.24 3.21-3.27 1.83-3.28 1.83v7.93 7.92l2.16-1.33 2.15-1.33-1.31-7.19-1.32-7.18 2.26 2.21 2.27 2.21-0.63 7.52-0.63 7.52-2.46 0.81-2.46 0.8-2.03-5.34zm-275.9-3.72c-3.354-1.46-11.805-3.31-18.779-4.1-6.974-0.8-13.361-1.85-14.193-2.35-0.833-0.49-1.078-1.6-0.542-2.47l0.973-1.57 16 2.56 16 2.56 4.803 3.15c4.804 3.14 6.114 5.1 3.321 4.95-0.814-0.04-4.228-1.27-7.583-2.73zm311.51-0.04c0-1.56 0.81-3.34 1.79-3.95l1.8-1.11-1.04 3.95c-0.57 2.18-1.37 3.96-1.79 3.96s-0.76-1.28-0.76-2.85zm288.38-8.51c3.16-5.8 16.23-20.27 18.31-20.27h1.95l-9.32 11.86c-5.12 6.53-10.11 11.86-11.07 11.86h-1.76l1.89-3.45zm-288.38-0.38c0-1.15 0.89-2.1 1.98-2.1 2.53 0 2.53 1.4 0 2.97l-1.98 1.22v-2.09zm336.05 0.17v-1.96l6.43-2.04c12-3.82 33.33-8.15 40.15-8.15h6.8v1.82c0 1.95-5.11 3.23-20.76 5.2-8.99 1.13-20.09 3.45-29.16 6.08l-3.46 1v-1.95zm111.69-0.38c-5.44-0.85-14.33-1.68-19.77-1.85l-9.88-0.31 3.95-1.7 3.96-1.7-5.77-0.14-5.77-0.14 1.27-1.27c0.7-0.69 9.59-1.17 19.76-1.07l18.49 0.2 5.28 2.01 5.28 2.01v3.01 3.02l-3.46-0.27c-1.9-0.14-7.9-0.95-13.34-1.8zm-764.02-3.3v-1.96l13.725-2.27c7.547-1.24 18.445-2.18 24.215-2.07l10.491 0.19-13.837 2.64c-7.611 1.45-18.507 3.26-24.216 4.03l-10.378 1.4v-1.96zm617.89-18.61c8.49-11.03 48.89-43.28 51.25-40.92 0.49 0.49-6.73 6.54-16.05 13.44-9.31 6.9-21.95 17.08-28.07 22.61l-11.13 10.07 4-5.2zm-622.73-9.02l-15.591-9.28 2.278-0.76 2.277-0.76 14.859 8.45c8.172 4.65 14.86 9.17 14.86 10.04s-0.696 1.58-1.544 1.58c-0.854 0.01-8.566-4.17-17.139-9.27zm-33.816 4.47l3.833-3.1h13.459 13.46v1.98 1.97l-6.424 0.02c-3.533 0.01-11.317 0.52-17.297 1.13l-10.871 1.1 3.84-3.1zm56.45-3.39c-7.067-2.21-13.693-4.83-14.727-5.82l-1.878-1.8h3.288c4.028 0 25.453 7.74 28.046 10.13l1.878 1.73-1.878-0.11c-1.034-0.06-7.662-1.92-14.729-4.13zm622.68 1.45c0-1.32 31.41-19.72 46.46-27.21 7.61-3.79 16.73-7.85 20.26-9.03l6.42-2.14v1.87c0 1.03-1.55 2.41-3.46 3.07-11.86 4.12-33.15 14.33-49.13 23.55-10.19 5.89-18.99 10.7-19.54 10.7-0.56 0.01-1.01-0.36-1.01-0.81zm-314.3-8.95c0-1.15 0.89-2.09 1.97-2.09 2.54 0 2.54 1.4 0 2.96l-1.97 1.22v-2.09zm-25.7-2.09v-2.64l1.32 1.32 1.31 1.32-1.31 1.32-1.32 1.31v-2.63zm227.9-36.95c-0.91-1.97-1.52-4.91-1.35-6.54 0.18-1.64 0.42-8.16 0.55-14.5l0.22-11.53 2.48 0.81 2.47 0.8 2.12 12.7 2.13 12.71-1.33 3.85c-0.73 2.12-2.29 4.17-3.47 4.56l-2.15 0.72-1.67-3.58zm4.87-7.69l0.51-7.07-1.93-3.31-1.93-3.3-0.06 10.38-0.06 10.38 1.49-0.01c0.81 0 1.71-3.18 1.98-7.07zm210.02 9.23v-1.8l16.42-5.12c9.03-2.81 17.93-5.12 19.77-5.12h3.35v1.94 1.94l-5.44 1.14c-2.99 0.63-11.01 2.87-17.83 4.98s-13.27 3.84-14.33 3.84c-1.07 0-1.94-0.81-1.94-1.8zm-258.81-10.87l-2.65-3.2 1.27-9.28c0.7-5.11 2.15-10.16 3.23-11.24s2.05-4.23 2.16-7l0.2-5.04 1.54 6.92c0.85 3.8 2.09 10.6 2.76 15.11l1.21 8.19-3.53 4.37-3.54 4.36-2.65-3.19zm5.76-9.68c-0.02-3.47-0.79-7.51-1.73-8.98l-1.69-2.67-0.95 6.51c-0.53 3.59-0.54 8.11-0.03 10.06l0.92 3.55 1.75-1.08 1.76-1.09-0.03-6.3zm-72.04-9.77c0.74-2.45 2.27-5.34 3.39-6.43l2.05-1.97-1.28 3.62c-0.7 1.99-1.28 4.88-1.28 6.42s-0.95 2.81-2.11 2.81h-2.11l1.34-4.45zm82.39-7.41c1.34-6.74 8.15-32.42 8.87-33.45 0.31-0.45 1-0.39 1.53 0.14 1.16 1.16-8.03 35.15-9.99 36.96l-1.39 1.29 0.98-4.94zm-74.43-3.96c0.72-3.8 2.13-8.25 3.14-9.88l1.84-2.97-1.3 6.92c-0.72 3.81-2.13 8.25-3.14 9.89l-1.84 2.96 1.3-6.92zm80.54 1.24c0.71-1.85 2.7-8.44 4.42-14.65 4.45-16.02 4.81-16.94 6.08-15.66 1.56 1.56-7.29 30.89-9.79 32.44l-2 1.24 1.29-3.37zm-26.32-3.76v-5.15l2.06-1.27 2.06-1.27-1.35 5.6c-0.74 3.08-1.67 5.97-2.06 6.42-0.39 0.46-0.71-1.49-0.71-4.33zm-47.37-0.94c0.04-0.81 1.31-6.68 2.83-13.04 2.78-11.65 4.9-16.19 5.13-11.01l0.13 2.8 1.78-4.45c0.99-2.44 2.56-4.44 3.49-4.44h1.7l-4.02 12.27-4.03 12.27-3.54 3.54c-1.95 1.95-3.51 2.88-3.47 2.06zm26.35-15.52l1.31-17 3.11-4.25 3.11-4.25-1.17 5.93-1.18 5.94 1.93 11.61 1.92 11.61-1.98 3.71-1.98 3.7h-3.19-3.18l1.3-17zm5.21 3.05c0-5.65-2.92-4.67-3.25 1.09l-0.28 4.93 1.76-1.09c0.97-0.6 1.77-2.82 1.77-4.93zm35.04 6.05c0.63-4.89 2.36-12.01 3.83-15.82l2.68-6.91-1.03 7.06c-0.57 3.88-2.29 10.99-3.83 15.81l-2.8 8.75 1.15-8.89zm-56.36 0c0.56-1.63 2.52-8.18 4.37-14.55 1.84-6.36 3.79-11.13 4.34-10.58 1.38 1.38-5.17 23.71-7.67 26.12l-2.05 1.98 1.01-2.97zm32.61-5.93c0.57-2.18 1.37-3.96 1.79-3.96 0.41 0 0.75 1.78 0.75 3.96v3.95h-1.79-1.79l1.04-3.95zm43.33-6.23c2.71-10.46 4.66-14.36 4.71-9.42l0.04 2.8 1.91-2.96 1.92-2.97 0.03 4.66 0.03 4.66-2.74-1.05-2.73-1.05-1.24 7.76-1.25 7.75h-1.66-1.67l2.65-10.18zm31.51 4.25c0.73-2.72 2.08-6.28 3-7.91l1.68-2.96 0.06 4.07c0.03 2.24-1.32 5.8-3.01 7.91l-3.07 3.83 1.34-4.94zm7.82-0.98c0.69-3.26 1.63-6.3 2.08-6.76 0.46-0.45 1.35-0.31 1.97 0.32 0.63 0.63-0.3 3.66-2.08 6.75l-3.22 5.61 1.25-5.92zm-107.79 1.9c0-0.72 1.42-6.17 3.15-12.13 1.73-5.95 3.61-10.36 4.18-9.8 1.45 1.45-3.4 20.79-5.55 22.12-0.98 0.61-1.78 0.52-1.78-0.19zm45.94-8.9c1.11-4.39 2.46-7.54 2.99-7.01 1.53 1.53-1.48 14.99-3.34 14.99h-1.68l2.03-7.98zm-27.14-1.9l0.96-8.9-1.83 3.96-1.84 3.95v-3.95c0-2.18 0.73-5.74 1.61-7.91l1.6-3.96 1.42 7.31 1.43 7.31-2.15 5.54-2.15 5.54 0.95-8.89zm76.28 4.94c-0.14-4.25 2.95-10.38 4.46-8.84 0.5 0.51-0.27 3.6-1.71 6.86l-2.62 5.93-0.13-3.95zm-53.4-2.97c0.06-1.63 0.88-4.74 1.81-6.91l1.7-3.96 0.11 3.96c0.06 2.17-0.76 5.28-1.81 6.91l-1.92 2.97 0.11-2.97zm-2.14-9.88v-2.64l1.32 1.32 1.31 1.32-1.31 1.32-1.32 1.32v-2.64zm63.28-0.38c0.02-1.42 0.9-3.92 1.95-5.55l1.92-2.97 0.03 4.34c0.01 2.38-0.86 4.88-1.95 5.55l-1.98 1.22 0.03-2.59zm-8.85-4.56c1.28-6.12 2.38-8.18 3.6-6.75 0.39 0.45-0.54 3.49-2.06 6.75l-2.77 5.93 1.23-5.93zm4.3 0.99c0.57-2.18 1.73-3.96 2.59-3.96h1.56l-1.03 3.96c-0.57 2.17-1.74 3.95-2.6 3.95h-1.56l1.04-3.95zm-155.59 0v-2.21l-1.98 1.22-1.98 1.22v-2.02c0-1.12 1.78-2.98 3.96-4.14l3.95-2.12v3.91c0 2.15-0.89 4.45-1.98 5.12l-1.97 1.23v-2.21zm-8.9-1.98l-1.22-1.98h2.09c1.15 0 2.1 0.89 2.1 1.98 0 2.53-1.4 2.53-2.97 0zm21.87-3.76l-1.36-2.2 3.09-3.09c1.7-1.7 3.09-2.47 3.09-1.72s1.33 0.26 2.96-1.09c1.63-1.36 2.97-2.05 2.97-1.54s-2.11 3.38-4.7 6.39l-4.69 5.46-1.36-2.21zm-222.51-3.75v-1.58l7.41 0.72 7.41 0.72-2.96-2.07-2.97-2.08h5.93c3.27 0 7.12 0.75 8.57 1.67l2.64 1.68-4.62 1.23c-2.53 0.68-8.39 1.25-13.01 1.27l-8.4 0.02v-1.58zm-7.25-3.69l1.32-1.32 1.32 1.32 1.32 1.32h-2.64-2.63l1.31-1.32zm94.23-0.96c-2.72-1.12-8.28-2.01-12.36-1.98l-7.41 0.05v-1.85-1.85l5.43 0.01c3 0.01 8.78 0.94 12.85 2.07l7.42 2.06v1.88c0 1.04-0.22 1.83-0.5 1.76-0.27-0.07-2.72-1.04-5.43-2.15zm-66.37-2.62l-3.81-2.89 1.98-0.03c2.94-0.05 7.96 3.48 6.71 4.72-0.59 0.59-2.78-0.22-4.88-1.8zm-29.51-1.03c0.68-1.09 2.95-1.98 5.06-1.98h3.84v1.98 1.97h-5.06-5.06l1.22-1.97zm-16.799-7.91v-1.98h4.829c2.65 0 5.37 0.89 6.04 1.98l1.22 1.98h-6.04-6.049v-1.98zm-46.146-2.47l0.913-1.49 12.238 0.18c6.731 0.09 16.686 0.86 22.122 1.71l9.884 1.54-23.035-0.23-23.035-0.23 0.913-1.48zm-74.437-4.03l2.965-3.1 15.814-3.25c8.6979-1.79 23.375-4.06 32.617-5.04 28.131-2.99 55.49-5.59 72.646-6.9l16.31-1.24v1.75 1.74l-31.136 2.38c-17.123 1.3-38.695 3.36-47.936 4.58-23.429 3.09-55.567 8.75-60.292 10.62l-3.953 1.57 2.965-3.11zm193.74-0.39l-2.44-2.94 5.66 1.79c3.11 0.99 6.99 2.24 8.62 2.78l2.97 0.99-6.18 0.16-6.19 0.15-2.44-2.93zm-21.27-3.32l5.44-1.98 5.43 1.98 5.44 1.99h-10.87-10.88l5.44-1.99zm62.76 0.68v-2.05l10.38-1.27 10.38-1.28 4.94 2 4.94 1.99-12.19 0.13c-6.71 0.07-13.6 0.66-15.32 1.32l-3.13 1.2v-2.04zm-45.46-8.26c2.72-0.87 6.72-1.66 8.89-1.75l3.96-0.17-2.97 1.92c-1.63 1.05-5.63 1.84-8.89 1.75l-5.93-0.17 4.94-1.58zm18.47-2.44c1.26-0.8 9.62-1.47 18.59-1.49l16.31-0.03-0.01 1.49v1.48h-18.59-18.59l2.29-1.45zm-180.91-70.77l-3.3051-1.93-1.0872-5.43-1.0873-5.42 1.6744-10.87 1.6743-10.88 0.24708 15.21 0.24709 15.2 1.5774 0.97c0.8678 0.54 2.8683 0.18 4.4478-0.81l2.8702-1.78-0.1324-18.56-0.1325-18.56 2.1097 0.21c1.826 0.19 13.985-4.48 35.714-13.7 5.252-2.23 39.314-13.74 55.35-18.71 49.68-15.39 118.11-30.67 147.76-32.99l15.32-1.19v2.14 2.15l-8.4 1.05c-4.62 0.57-17.74 2.07-29.16 3.33l-20.75 2.3-49.42 12.44-49.42 12.44-25.698 8.88c-34.143 11.8-57.431 20.52-64.443 24.15l-5.733 2.97v13.88 13.89l-3.0142 5.83c-1.6585 3.21-3.2162 5.8-3.4593 5.77-0.2452-0.03-1.9313-0.92-3.75-1.98zm-0.5732-48.91c1.0358-14.91 2.7022-22.19 5.0803-22.19h1.7632l-0.2965 9.39-0.2945 9.39-1.018-5.93-1.0181-5.93-2.5381 13.84-2.5382 13.84 0.8599-12.41zm6.8435-0.44v-2.64l1.3182 1.32 1.317 1.32-1.319 1.32-1.3181 1.31v-2.63h0.0019zm-5.0486-31.8l-1.3284-2.15 2.2001-2.2 2.2002-2.2v4.35c0 2.39-0.3914 4.35-0.8718 4.35-0.4803 0-1.4687-0.97-2.2001-2.15zm249.18-63.09c1.58-2.55 4.95-2.55 4.95 0 0 1.09-1.39 1.98-3.09 1.98h-3.08l1.22-1.98zm-8.89-1.41c-6.2-2.3-47.31-21.05-67.21-30.66-11.42-5.51-21.48-11.23-22.35-12.72l-1.59-2.69-5.33 0.3c-2.93 0.16-6.21 0-7.3-0.36-2.61-0.86-15.26 2.09-17.86 4.17-2.25 1.8-7.95 1.42-10.04-0.67l-1.33-1.33 3.23-1.24c1.78-0.68 2.87-1.84 2.42-2.56l-0.81-1.32 8.24-0.51c4.53-0.29 12.91-0.67 18.61-0.86l10.38-0.35v-1.5c0-0.82-2.78-4.67-6.19-8.55-6.1-6.95-6.55-10.41-1.07-8.31l2.8 1.07 5.14 10.33 5.15 10.33 6.47 3.99c3.57 2.2 8.42 4.1 10.79 4.22l4.32 0.23 4.16 5.29 4.16 5.29 2.89-1.12 2.89-1.11v2.26 2.26l9.07 3.89c5 2.14 9.8 3.45 10.67 2.91l1.59-0.99 1.18 3.08 1.19 3.08 1.85-1.14 1.85-1.15 1.21 1.95c0.66 1.08 5.33 3.78 10.37 6.01l9.17 4.06 1.62-2.52 1.63-2.51 1.95 2.96c2.31 3.52 2.61 7.97 0.52 7.75-0.81-0.09-2.81-0.65-4.44-1.26zm-191.75-25.39v-3.08l1.976 1.22c2.558 1.58 2.558 4.94 0 4.94-1.087 0-1.976-1.39-1.976-3.08zm521.75-56.44l-2.23-4.17 1.35-15.272c0.74-8.399 2.11-16.504 3.05-18.01l1.69-2.74 1.29 3.378 1.3 3.378-2.08 5.955-2.07 5.956h1.62c0.89 0 2.19 3.574 2.89 7.942l1.27 7.943-1.23 4.91c-0.68 2.69-1.99 4.9-2.92 4.9s-2.7-1.88-3.93-4.17zm3.46-13.124l-0.91-3.46v6.924 6.91l0.91-3.46c0.5-1.9 0.5-5.013 0-6.914zm-11.25-36.193c0-1.15 2.76-5.533 6.14-9.737l6.15-7.645-2.14-5.582-2.14-5.582 0.38 5.995 0.37 5.996-5.6 7.347c-3.09 4.041-6.4 7.348-7.38 7.348h-1.76l5.39-8.401 5.4-8.402-0.35-21.25-0.34-21.25 3.87-1.3286e-13h3.87l0.31 4.4477c0.17 2.4453 0.18 5.7823 0.01 7.4133-0.3 2.856 3.12 25.445 4.8 31.711l0.82 3.048-7.76 8.318c-4.26 4.575-8.27 8.319-8.9 8.319-0.62 0-1.14-0.943-1.14-2.094z" fill="#FA6900"/>
<metadata fill="#FA6900"><rdf:RDF fill="#FA6900"><cc:Work fill="#FA6900"><dc:format fill="#FA6900">image/svg+xml</dc:format><dc:type rdf:resource="http://purl.org/dc/dcmitype/StillImage" fill="#FA6900"/><cc:license rdf:resource="http://creativecommons.org/licenses/publicdomain/" fill="#FA6900"/><dc:publisher fill="#FA6900"><cc:Agent rdf:about="http://openclipart.org/" fill="#FA6900"><dc:title fill="#FA6900">Openclipart</dc:title></cc:Agent></dc:publisher><dc:title fill="#FA6900">Miss Muffet's Spider</dc:title><dc:date fill="#FA6900">2007-04-21T13:17:41</dc:date><dc:description fill="#FA6900">The spider, crawling out of Little Miss Muffet's bowl of curds and whey from "Ring O' Roses". Sourced from Project Gutenberg.</dc:description><dc:source fill="#FA6900">https://openclipart.org/detail/4035/miss-muffets-spider-by-fundraw_dot_com</dc:source><dc:creator fill="#FA6900"><cc:Agent fill="#FA6900"><dc:title fill="#FA6900">FunDraw_dot_com</dc:title></cc:Agent></dc:creator><dc:subject fill="#FA6900"><rdf:Bag fill="#FA6900"><rdf:li fill="#FA6900">externalsource</rdf:li><rdf:li fill="#FA6900">kids</rdf:li><rdf:li fill="#FA6900">line drawing</rdf:li><rdf:li fill="#FA6900">nursery rhyme</rdf:li><rdf:li fill="#FA6900">spider</rdf:li></rdf:Bag></dc:subject></cc:Work><cc:License rdf:about="http://creativecommons.org/licenses/publicdomain/" fill="#FA6900"><cc:permits rdf:resource="http://creativecommons.org/ns#Reproduction" fill="#FA6900"/><cc:permits rdf:resource="http://creativecommons.org/ns#Distribution" fill="#FA6900"/><cc:permits rdf:resource="http://creativecommons.org/ns#DerivativeWorks" fill="#FA6900"/></cc:License></rdf:RDF></metadata></svg>