<svg xmlns="http://www.w3.org/2000/svg" width="24" height="24"><path d="M17.9 16.1H9.7c-1.6 0-3-1.3-3-3V5c0-1.6 1.3-3 3-3h.2c.1-.9.8-1.6 1.8-1.6h4.2c.9 0 1.7.7 1.8 1.6h.2c1.6 0 3 1.3 3 3v8.1c-.1 1.7-1.4 3-3 3zm-8.2-13c-1.1 0-2 .9-2 2v8.1c0 1.1.9 2 2 2h8.2c1.1 0 2-.9 2-2V5c0-1.1-.9-2-2-2h-.7c-.3 0-.5-.2-.5-.5v-.3c0-.4-.4-.8-.8-.8h-4.2c-.4 0-.8.4-.8.8v.3c0 .3-.2.5-.5.5h-.7z"/><path d="M13.8 12.4c-2 0-3.6-1.6-3.6-3.6s1.6-3.6 3.6-3.6 3.6 1.6 3.6 3.6-1.6 3.6-3.6 3.6zm0-6.2c-1.4 0-2.6 1.2-2.6 2.6 0 1.5 1.2 2.6 2.6 2.6 1.4 0 2.6-1.2 2.6-2.6 0-1.4-1.2-2.6-2.6-2.6z"/><path d="M13.8 10.1c-.7 0-1.3-.6-1.3-1.3 0-.7.6-1.3 1.3-1.3.7 0 1.3.6 1.3 1.3 0 .7-.6 1.3-1.3 1.3zm0-1.6c-.1 0-.3.1-.3.3 0 .3.5.3.5 0 .1-.1-.1-.3-.2-.3zM6.1 21.1H3.7c-.3 0-.5-.2-.5-.5v-2.5c0-.3.2-.5.5-.5h2.5c.3 0 .5.2.5.5s-.2.5-.5.5h-2v1.5h2c.3 0 .5.2.5.5s-.3.5-.6.5z"/><path d="M3.7 23.5c-.3 0-.5-.2-.5-.5v-2.5c0-.3.2-.5.5-.5h2.5c.3 0 .5.2.5.5s-.2.5-.5.5h-2v2c0 .3-.3.5-.5.5zM10.9 21.1c-.3 0-.5-.2-.5-.5v-2H8.9v2c0 .3-.2.5-.5.5s-.5-.2-.5-.5v-2.5c0-.3.2-.5.5-.5h2.5c.3 0 .5.2.5.5v2.5c0 .3-.3.5-.5.5z"/><path d="M10.9 23.5H8.4c-.3 0-.5-.2-.5-.5v-2.5c0-.3.2-.5.5-.5s.5.2.5.5v2h1.5v-2c0-.3.2-.5.5-.5s.5.2.5.5V23c0 .3-.3.5-.5.5zM15.6 21.1c-.3 0-.5-.2-.5-.5v-2h-1.5v2c0 .3-.2.5-.5.5s-.5-.2-.5-.5v-2.5c0-.3.2-.5.5-.5h2.5c.3 0 .5.2.5.5v2.5c0 .3-.2.5-.5.5z"/><path d="M15.6 23.5h-2.5c-.3 0-.5-.2-.5-.5v-2.5c0-.3.2-.5.5-.5s.5.2.5.5v2h1.5v-2c0-.3.2-.5.5-.5s.5.2.5.5V23c0 .3-.2.5-.5.5zM20.3 21.1h-2.5c-.3 0-.5-.2-.5-.5s.2-.5.5-.5h2v-2c0-.3.2-.5.5-.5s.5.2.5.5v2.5c0 .3-.2.5-.5.5z"/><path d="M20.3 23.5h-2.5c-.3 0-.5-.2-.5-.5v-2.5c0-.3.2-.5.5-.5h2.5c.3 0 .5.2.5.5V23c0 .3-.2.5-.5.5zm-1.9-1h1.5V21h-1.5v1.5zM3.7 13.7c-.3 0-.5-.2-.5-.5v-2.5c0-.3.2-.5.5-.5s.5.2.5.5v2.5c0 .2-.3.5-.5.5z"/><path d="M3.7 16.1c-.3 0-.5-.2-.5-.5v-2.5c0-.3.2-.5.5-.5s.5.2.5.5v2.5c0 .3-.3.5-.5.5z"/></svg>