<svg width="1987" height="1539" viewBox="0 0 1987 1539" fill="none" xmlns="http://www.w3.org/2000/svg" xmlns:xlink="http://www.w3.org/1999/xlink">
<style>.Group_226 {
	animation: 2s linear 0s 1 normal forwards running Group_226;
		transform: translateX(524.07px) translateY(532.39px) rotate(-10deg);
}
@keyframes Group_226 {
	0% {
		transform: translateX(524.07px) translateY(532.39px) rotate(-10deg);
	}
	100% {
		transform: translateX(524.07px) translateY(402.39px) rotate(-10deg);
	}
}.Vector_570 {
	animation: 2s linear 0s 1 normal forwards running Vector_570;
		transform: translateX(-556.34px) translateY(-199.38000000000002px) rotate(0deg);
}
@keyframes Vector_570 {
	0% {
		transform: translateX(-556.34px) translateY(-199.38000000000002px) rotate(0deg);
	}
	100% {
		transform: translateX(-556.34px) translateY(-199.38000000000002px) rotate(10deg);
	}
}.Vector_382 {
	animation: 2s linear 0s 1 normal forwards running Vector_382;
		transform: translateX(3.51px) translateY(3.45px);
}
@keyframes Vector_382 {
	0% {
		transform: translateX(3.51px) translateY(3.45px);
	}
	100% {
		transform: translateX(38.51px) translateY(-46.55px);
	}
}.Frame_988 {
	animation: 2s linear 0s 1 normal forwards running Frame_988;
		transform: translateX(0px) translateY(0px);
}
@keyframes Frame_988 {
	0% {
		transform: translateX(0px) translateY(0px);
	}
	100% {
		transform: translateX(35px) translateY(-30px);
	}
}.Vector_133 {
	animation: 2s linear 0s 1 normal forwards running Vector_133;
		transform: translateX(-598.58px) translateY(73.8px);
}
@keyframes Vector_133 {
	0% {
		transform: translateX(-598.58px) translateY(73.8px);
	}
	100% {
		transform: translateX(-598.58px) translateY(-36.2px);
	}
}.Vector_780 {
	animation: 2s linear 0s 1 normal forwards running Vector_780;
		transform: translateX(-572.34px) translateY(86.46px) rotate(0deg);
}
@keyframes Vector_780 {
	0% {
		transform: translateX(-572.34px) translateY(86.46px) rotate(0deg);
	}
	100% {
		transform: translateX(-572.34px) translateY(30.62px) rotate(20deg);
	}
}.Vector_660 {
	animation: 2s linear 0s 1 normal forwards running Vector_660;
		transform: translateX(-541.61px) translateY(-22.24000000000001px) rotate(0deg);
}
@keyframes Vector_660 {
	0% {
		transform: translateX(-541.61px) translateY(-22.24000000000001px) rotate(0deg);
	}
	100% {
		transform: translateX(-541.61px) translateY(-22.24px) rotate(20deg);
	}
}
</style>
<g clip-path="url(#clip_0_578)" width="1987" height="1539" data-name="Frame 1">
	<rect width="1987" height="1539" fill="white" data-name="Frame 1"/>
	<g transform="translate(0 39)" clip-path="url(#clip_1_770)" width="1987" height="1462" data-name="burgundy-54 1">
		<g transform="translate(1821.83 498.3) rotate(180)" width="131.64" height="86.5" data-name="Group">
			<g transform=" rotate(180)" clip-path="url(#clip_3_48)" width="131.64" height="86.5" data-name="Frame">
				<path d="M64.6682 54.4936H26.8549C12.0486 54.4936 0 42.5803 0 27.9375C0 12.9964 12.2922 0.84226 27.403 0.84226H63.7489V14.8916H27.403C23.9049 14.8954 20.5512 16.2711 18.0776 18.7168C15.6041 21.1626 14.2128 24.4786 14.209 27.9375C14.2128 31.2525 15.5464 34.4307 17.9171 36.7749C20.2879 39.119 23.5022 40.4376 26.8549 40.4414H64.6682V54.4936ZM20.2405 79.9975H131.639V90.3395H20.2405V79.9975Z" fill="#939498" data-name="Vector" transform="translate(-1821.83 -485.46)"/>
				<path d="M55.6531 94.9975H26.2232C19.5223 94.9975 13.0958 92.3655 8.35756 87.6804C3.61929 82.9954 0.957363 76.6411 0.957363 70.0154V0.562866H80.9161V70.0154C80.9165 73.296 80.2633 76.5445 78.9939 79.5754C77.7245 82.6064 75.8637 85.3604 73.5178 87.6802C71.1719 90.0001 68.3868 91.8403 65.3215 93.0958C62.2563 94.3513 58.971 94.9975 55.6531 94.9975Z" fill="#939498" data-name="Vector" transform="translate(-1785.87 -500.74)"/>
			</g>
		</g>
		<g transform="translate(1701.37 498.3) rotate(180)" width="115.49" height="80.41" data-name="Group">
			<g transform=" rotate(180)" clip-path="url(#clip_3_168)" width="115.49" height="80.41" data-name="Frame">
				<path d="M56.7372 46.8963H23.5614C10.571 46.8963 0 36.5068 0 23.7368C0 10.7069 10.7847 0.107319 24.0422 0.107319H55.9307V12.3597H24.0422C20.9732 12.363 18.0307 13.5627 15.8606 15.6956C13.6904 17.8285 12.4697 20.7204 12.4663 23.7368C12.4697 26.6279 13.6397 29.3996 15.7197 31.4439C17.7997 33.4882 20.6198 34.6381 23.5614 34.6414H56.7372V46.8963ZM17.7582 69.138H115.494V78.1573H17.7582V69.138Z" fill="#DBD8D3" data-name="Vector" transform="translate(-1701.37 -486.19)"/>
				<path d="M48.5353 83.138H22.7147C16.8356 83.138 11.1973 80.8427 7.04012 76.7569C2.88296 72.6711 0.547495 67.1296 0.547495 61.3514V0.782267H70.7V61.3514C70.7003 64.2123 70.1273 67.0453 69.0135 69.6886C67.8998 72.3318 66.2672 74.7336 64.209 76.7567C62.1508 78.7798 59.7073 80.3847 57.0179 81.4796C54.3286 82.5745 51.4462 83.138 48.5353 83.138Z" fill="#DBD8D3" data-name="Vector" transform="translate(-1669.82 -499.52)"/>
			</g>
		</g>
		<g transform="translate(512.88 539.66) rotate(-10)" class="Group_226" width="72.03" height="135.23" data-name="Group">
			<g transform=" rotate(-10)" clip-path="url(#clip_3_508)" width="72.03" height="135.23" data-name="Frame">
				<path d="M30.2854 3.78356L30.2682 1.2884C30.2671 1.11792 30.2328 0.949336 30.1672 0.79229C30.1016 0.635244 30.0061 0.492817 29.886 0.373156C29.766 0.253495 29.6238 0.158948 29.4676 0.0949222C29.3114 0.0308961 29.1443 -0.00135258 28.9758 2.05599e-05L14.4825 0.107675C13.735 0.113482 13.0086 0.358773 12.4076 0.80832C11.8066 1.25787 11.3618 1.88854 11.1372 2.60977L0.504139 36.7779L6.17684 38.5837L16.5714 5.18133L29.0118 5.0893C29.1802 5.08816 29.3467 5.05349 29.5018 4.98725C29.657 4.92102 29.7977 4.82452 29.9159 4.70327C30.0342 4.58202 30.1277 4.43839 30.1911 4.28059C30.2545 4.12278 30.2865 3.95389 30.2854 3.78356Z" fill="#E33B2B" data-name="Vector" transform="translate(-479.38 -539.66)"/>
				<path d="M66.7903 26.2657C66.6118 11.991 52.9046 0.465065 36.0135 0.465065C19.1224 0.465065 5.41524 11.9928 5.23845 26.2657C3.77722 26.5052 2.44786 27.2627 1.48813 28.4028C0.528406 29.543 0.000913352 30.9913 0 32.4888L0 38.606H72.0287V32.4888C72.0278 30.9913 71.5003 29.543 70.5406 28.4028C69.5809 27.2627 68.2515 26.5052 66.7903 26.2657Z" fill="#FCBA3D" data-name="Vector" transform="translate(-512.88 -517.19)"/>
				<path d="M60.5243 0.666794L58.48 20.4978L54.9065 55.0948L52.0727 82.545H8.67694L5.84488 55.0948L2.27133 20.4978L0.220235 0.666794H60.5243Z" fill="#E33B2B" data-name="Vector" transform="translate(-506.66 -478.99)"/>
			</g>
		</g>
		<g transform="translate(1572.21 498.3)" width="260.79" height="236.36" data-name="Group">
			<g clip-path="url(#clip_3_100)" width="260.79" height="236.36" data-name="Frame">
				<path d="M0 0.615529H260.794V229.575H0V0.615529Z" fill="#939498" data-name="Vector" transform="translate(-1572.21 -489.68)"/>
				<g transform="translate(-1557.57 -479.38)" width="231.52" height="160.59" data-name="Group">
					<path d="M0 0H231.519V48.6465H0V0ZM0 58.7188H231.519V104.239H0V58.7188ZM0 115.072H231.519V160.592H0V115.072Z" fill="#DBD8D3" data-name="Vector"/>
				</g>
				<path d="M0.552446 0.357132H119.397V45.0559H0.552446V0.357132ZM119.397 0.357132H238.241V45.0559H119.397V0.357132Z" fill="#8E231D" data-name="Vector" transform="translate(-1560.66 -311.94)"/>
				<path d="M0.432922 0.340225H0.988218V45.0498H0.432922V0.340225Z" fill="#010101" data-name="Vector" transform="translate(-1441.78 -311.96)"/>
			</g>
		</g>
		<g transform="translate(139.09 734.66)" width="1748.56" height="622.57" data-name="Group">
			<g clip-path="url(#clip_3_968)" width="1748.56" height="622.57" data-name="Frame">
				<path d="M0.937954 0.46254H1654.79V593.789H0.937954V0.46254Z" fill="#939598" data-name="Vector" transform="translate(-97.15 -704.2)"/>
				<path d="M0.389526 0.300598H292.921V195.138H0.389526V0.300598Z" fill="#FDBB3F" data-name="Vector" transform="translate(1265.3 -967.36)"/>
				<path d="M199.959 0.467667H0.012207V147.138H62.0008V232.257L131.919 235.005V147.138H199.959V0.467667Z" fill="#939598" data-name="Vector" transform="translate(1315.92 -919.19)"/>
				<path d="M0 0.512874H1748.56V36.154H0V0.512874Z" fill="#020202" data-name="Vector" transform="translate(-139.09 -735.15)"/>
				<path d="M0.0703125 0.973083H1174.96V473.789H0.0703125V0.973083Z" fill="#DCD9D3" data-name="Vector" transform="translate(150.98 -583.69)"/>
			</g>
		</g>
		<g transform="translate(1538.68 348.44) rotate(180)" width="226.02" height="384.99" data-name="Group">
			<g transform=" rotate(180)" clip-path="url(#clip_3_60)" width="226.02" height="384.99" data-name="Frame">
				<path d="M131.393 109.276H25.8924L0.198502 21.4554L16.6383 0H140.646L157.086 21.4554L131.393 109.276Z" fill="#DCD9D3" data-name="Vector" transform="translate(-1476.48 -348.44)"/>
				<path d="M100.874 59.2762H16.3018L0.48439 0.373383H117.371L100.874 59.2762Z" fill="#020202" data-name="Vector" transform="translate(-1456.2 -298.07)"/>
				<path d="M79.7725 109.572H220.512V0.368393H0V276.992H220.512V247.884H79.7725V109.572Z" fill="#E23D2C" data-name="Vector" transform="translate(-1538.68 -240.07)"/>
				<path d="M0.772499 0.858887H141.516V8.8827H0.772499V0.858887Z" fill="#DCD9D3" data-name="Vector" transform="translate(-1458.91 -0.58)"/>
				<path d="M141.567 0.570867V26.3285H101.074V26.3905C101.043 34.0613 94.6927 40.2812 86.8754 40.2812H55.5261C53.6615 40.2827 51.815 39.922 50.0928 39.2199C48.3705 38.5177 46.8064 37.488 45.4904 36.1898C42.8382 33.5927 41.3412 30.0687 41.3272 26.3892V26.3272H0.833046V0.569565H141.567V0.570867Z" fill="#939598" data-name="Vector" transform="translate(-1458.85 -130.87)"/>
				<path d="M141.567 0.414124V10.3284H101.073V10.3918H0.768562V0.414124H141.567Z" fill="#DCD9D3" data-name="Vector" transform="translate(-1458.91 -115.03)"/>
				<g transform="translate(-1523.57 -224.72)" width="210.91" height="67.93" data-name="Group">
					<path d="M0 0H54.8839V7.76647H0V0ZM0 15.5174H54.8839V23.2839H0V15.5174ZM0 32.3279H54.8839V40.0944H0V32.3279ZM205.456 12.9402H210.91V35.5737H205.456V12.9402ZM205.456 45.294H210.91V67.9275H205.456V45.294Z" fill="#8F241E" data-name="Vector"/>
				</g>
			</g>
		</g>
		<g transform="translate(156.48 702.98)" width="353.93" height="654.24" data-name="Group">
			<g clip-path="url(#clip_3_11)" width="353.93" height="654.24" data-name="Frame">
				<path d="M272.13 430.629L261.159 141.292L53.0462 141.361L26.2183 0.757696H0L24.456 140.85L0 652.245H26.4039L40.4891 337.244H243.977L254.48 652.245H280.531L273 453.673H330.432L353.93 430.642V430.634L272.13 430.629ZM41.5669 312.884L47.481 180.333H238.757L243.173 312.884H41.5669Z" fill="#FCBA3D" data-name="Vector" transform="translate(-156.48 -700.22)"/>
			</g>
		</g>
		<g transform="translate(1276.65 709.07) rotate(180)" width="348.97" height="648.15" data-name="Group">
			<g transform=" rotate(180)" clip-path="url(#clip_3_8)" width="348.97" height="648.15" data-name="Frame">
				<path d="M268.311 426.601L257.493 139.958L52.3017 140.026L25.8504 0.732019H0L24.1128 139.52L0 646.153H26.0333L39.9209 334.085H240.553L250.909 646.153H276.594L269.169 449.431H325.795L348.963 426.614V426.605L268.311 426.601ZM40.9835 309.952L46.8146 178.635H235.406L239.76 309.952H40.9835Z" fill="#FCBA3D" data-name="Vector" transform="translate(-1276.65 -706.34)"/>
			</g>
		</g>
		<g transform="translate(763.75 650.59)" width="121.7" height="84.06" data-name="Group">
			<g clip-path="url(#clip_3_874)" width="121.7" height="84.06" data-name="Frame">
				<path d="M59.7875 49.3201H24.8281C11.1393 49.3201 0 38.3765 0 24.9255C0 11.2006 11.3645 0.0357218 25.3348 0.0357218H58.9377V12.9415H25.3348C22.1007 12.945 19.0001 14.2087 16.7133 16.4554C14.4264 18.7021 13.1401 21.7482 13.1366 24.9255C13.1401 27.9707 14.3731 30.8903 16.5649 33.0436C18.7567 35.1969 21.7284 36.4082 24.8281 36.4117H59.7875V49.3201ZM18.7129 72.7481H121.704V82.2483H18.7129V72.7481Z" fill="#939498" data-name="Vector" transform="translate(-763.75 -636.55)"/>
				<path d="M50.8114 86.7481H23.6026C17.4074 86.7481 11.466 84.3303 7.08529 80.0266C2.70463 75.7229 0.243599 69.8858 0.243599 63.7995V0H74.1677V63.7995C74.1681 66.813 73.5642 69.7971 72.3906 72.5813C71.217 75.3656 69.4966 77.8954 67.3278 80.0264C65.1589 82.1574 62.584 83.8479 59.7501 85.0012C56.9162 86.1545 53.8788 86.7481 50.8114 86.7481Z" fill="#939498" data-name="Vector" transform="translate(-730.51 -650.59)"/>
			</g>
		</g>
		<g transform="translate(1613.2 536.07)" width="98.11" height="64.57" data-name="Group">
			<g clip-path="url(#clip_3_828)" width="98.11" height="64.57" data-name="Frame">
				<path d="M10.7687 0.11237C6.36913 8.27003 2.62204 17.4586 0 26.3351C1.07524 26.776 2.29784 26.5143 3.42898 26.2465C10.54 24.5632 18.0189 22.8678 25.1299 21.1836" fill="#FDBB3F" data-name="Vector" transform="translate(-1613.2 -497.96)"/>
				<path d="M17.8576 0.312199C10.7293 6.56308 3.30832 11.6683 0.841774 20.8277C-0.165375 24.5677 3.00242 27.1772 5.16103 30.4038L16.7529 47.7329C16.949 48.0269 17.1726 48.341 17.5121 48.4457C17.8292 48.5434 18.1686 48.4326 18.4816 48.3239C21.5417 47.2567 25.7725 45.9178 28.8326 44.8506" fill="#E23D2C" data-name="Vector" transform="translate(-1604.55 -522.76)"/>
				<path d="M45.8775 9.87316C45.0421 1.9259 32.9076 0.0936274 23.2162 0.00402698V0L23.0535 0.00201349C22.9994 0.000839077 22.9451 0.000167883 22.8909 0V0.00402698C13.1995 0.0936274 1.06599 1.92691 0.229578 9.87316C0.117123 11.0319 0.0984313 12.1978 0.173681 13.3595C0.51414 19.3607 2.82012 26.3687 3.96345 31.7407C5.60082 39.4357 7.57635 47.0563 9.88439 54.5807C10.4698 56.4976 11.1365 58.502 12.6192 59.8631C14.2595 61.3672 16.595 61.8182 18.8105 62.1243C20.025 62.2914 22.4204 62.5451 22.9499 62.5934C23.02 62.5995 23.0891 62.5995 23.1582 62.5934C23.6877 62.5451 26.0831 62.2914 27.2976 62.1243C29.5131 61.8182 31.8486 61.3672 33.4889 59.8631C34.9716 58.502 35.6383 56.4976 36.2237 54.5807C38.5316 47.0563 40.5072 39.4357 42.1447 31.7407C43.288 26.3687 45.594 19.3597 45.9344 13.3595C46.0088 12.1977 45.9898 11.0319 45.8775 9.87316ZM61.3384 38.1124C65.738 46.27 69.4851 55.4586 72.1071 64.3351C71.0319 64.776 69.8093 64.5143 68.6781 64.2465C61.5671 62.5632 54.0882 60.8679 46.9771 59.1836" fill="#FDBB3F" data-name="Vector" transform="translate(-1587.07 -536.07)"/>
				<path d="M11.6184 0.312199C18.7467 6.56308 26.1677 11.6683 28.6342 20.8277C29.6414 24.5677 26.4736 27.1772 24.3149 30.4038L12.7231 47.7329C12.5269 48.0269 12.3033 48.341 11.9639 48.4457C11.6468 48.5434 11.3074 48.4326 10.9944 48.3239C7.93429 47.2567 3.70345 45.9178 0.643387 44.8506" fill="#E23D2C" data-name="Vector" transform="translate(-1552.56 -522.76)"/>
			</g>
		</g>
		<g transform="translate(1621.89 639.63)" width="167.65" height="68.23" data-name="Group">
			<g clip-path="url(#clip_3_915)" width="167.65" height="68.23" data-name="Frame">
				<path d="M157.994 28.2706H0.0992651C0.811347 19.6775 6.91634 13.4887 16.7193 9.14985C22.2498 6.69705 28.9694 4.83874 36.5673 3.48069C41.2983 2.63122 46.3689 1.9813 51.7145 1.49074C59.7609 0.764598 68.4219 0.415385 77.4426 0.37797C78.0572 0.368269 78.6719 0.368269 79.2865 0.368269C82.5346 0.368269 85.734 0.405685 88.8645 0.481902C97.7591 0.717482 106.187 1.28426 113.901 2.26538C116.729 2.62429 119.46 3.04834 122.083 3.5195C129.642 4.89694 136.303 6.77327 141.775 9.26487C151.352 13.5829 157.272 19.7426 157.994 28.2706Z" fill="#FDBB3F" data-name="Vector" transform="translate(-1615.79 -637.26)"/>
				<path d="M150.902 39.2267H8.3519L0.592068 0.878441H158.661L150.902 39.2267Z" fill="#DCD9D3" data-name="Vector" transform="translate(-1616.3 -609.75)"/>
				<path d="M0 0.878441H167.653V12.0324H0V0.878441Z" fill="#939598" data-name="Vector" transform="translate(-1621.89 -609.75)"/>
				<g transform="translate(-1599.59 -637.31)" width="125.06" height="15.54" data-name="Group">
					<path d="M19.848 3.10411L6.99331 15.5372L0 8.77327C5.53046 6.32047 12.2515 4.46216 19.848 3.10411ZM61.3967 0.651309L47.9574 13.6498L34.9952 1.11277C43.0416 0.386628 51.7026 0.0374156 60.7247 0L61.3967 0.651309ZM97.1813 1.88741L85.0186 13.6512L71.5793 0.652694L72.1453 0.105318C81.0398 0.339512 89.4673 0.906289 97.1813 1.88741ZM125.056 8.8869L118.18 15.5372L105.364 3.14153C112.923 4.51897 119.585 6.39668 125.056 8.8869Z" fill="#E23D2C" data-name="Vector"/>
				</g>
			</g>
		</g>
		<g transform="translate(1718.76 554.34)" width="72.03" height="46.3" data-name="Group">
			<g clip-path="url(#clip_3_173)" width="72.03" height="46.3" data-name="Frame">
				<path d="M7.90611 0.32585C4.67607 6.17474 1.92504 12.7628 0 19.127C0.789417 19.4432 1.68703 19.2555 2.51748 19.0635C7.73823 17.8566 13.2291 16.6411 18.4498 15.4335" fill="#FDBB3F" data-name="Vector" transform="translate(-1718.76 -527.01)"/>
				<path d="M12.9841 0.544595C7.75064 5.02636 2.30231 8.6867 0.491429 15.2538C-0.247997 17.9353 2.07773 19.8063 3.66253 22.1197L12.173 34.5444C12.317 34.7551 12.4812 34.9803 12.7304 35.0554C12.9632 35.1254 13.2124 35.046 13.4422 34.9681C15.6888 34.2029 18.795 33.2429 21.0417 32.4778" fill="#E23D2C" data-name="Vector" transform="translate(-1712.41 -544.8)"/>
				<path d="M33.7708 7.07887C33.1575 1.38084 24.2486 0.067129 17.1334 0.00288727V0L17.014 0.00144364C16.9742 0.000601602 16.9344 0.000120369 16.8946 0V0.00288727C9.77941 0.067129 0.871233 1.38156 0.257159 7.07887C0.174598 7.90969 0.160875 8.74558 0.216121 9.57852C0.466079 13.8813 2.15907 18.9058 2.99848 22.7575C4.20061 28.2747 5.65099 33.7385 7.3455 39.1333C7.77528 40.5077 8.26475 41.9448 9.35337 42.9207C10.5576 43.9991 12.2723 44.3225 13.8989 44.5419C14.7905 44.6617 16.5492 44.8436 16.9379 44.8783C16.9894 44.8826 17.0401 44.8826 17.0908 44.8783C17.4796 44.8436 19.2382 44.6617 20.1299 44.5419C21.7565 44.3225 23.4711 43.9991 24.6754 42.9207C25.764 41.9448 26.2535 40.5077 26.6832 39.1333C28.3777 33.7385 29.828 28.2746 31.0303 22.7575C31.8697 18.9058 33.5627 13.8806 33.8126 9.57852C33.8672 8.74555 33.8533 7.90969 33.7708 7.07887ZM45.1219 27.3258C48.3519 33.1747 51.1029 39.7628 53.028 46.127C52.2386 46.4432 51.341 46.2555 50.5105 46.0635C45.2898 44.8566 39.7989 43.6411 34.5782 42.4335" fill="#FDBB3F" data-name="Vector" transform="translate(-1699.58 -554.34)"/>
				<path d="M8.58057 0.544595C13.814 5.02636 19.2623 8.6867 21.0732 15.2538C21.8126 17.9353 19.4869 19.8063 17.9021 22.1197L9.39163 34.5444C9.24762 34.7551 9.08347 34.9803 8.83426 35.0554C8.60146 35.1254 8.35226 35.046 8.12245 34.9681C5.87581 34.2029 2.76963 33.2429 0.522995 32.4778" fill="#E23D2C" data-name="Vector" transform="translate(-1674.24 -544.8)"/>
			</g>
		</g>
		<g transform="translate(576.23 265.6)" width="668.13" height="1081.88" data-name="Group">
			<g clip-path="url(#clip_3_771)" width="668.13" height="1081.88" data-name="Frame">
				<path d="M130.874 633.437L124.5 5.5951L0.372589 0.038269L66.1822 633.437H130.874Z" fill="#010101" data-name="Vector" transform="translate(-171.86 148.44)"/>
				<path d="M0.0769196 165.102C0.0769196 165.102 117.133 194.319 306.976 128.371C308.365 127.888 309.722 127.386 311.096 126.897C308.384 96.2867 290.5 68.3849 279.911 38.7835L0.0769196 165.102ZM340.739 73.9201C351.328 44.3187 361.269 31.4343 363.977 0.826797C365.518 1.37784 367.078 1.90411 368.593 2.47992C539.573 67.2828 513.733 166.82 513.733 166.82L340.739 73.9201Z" fill="#E33B2B" data-name="Vector" transform="translate(-423.15 -150.77)"/>
				<path d="M0.891182 3.18139L35.7059 0.218773L36.3089 16.8119C36.3089 16.8119 188.65 95.4217 199.718 167.63L140.384 194.414L15.7162 20.8828C15.7162 20.8828 18.7689 25.6192 0.891182 3.18139Z" fill="#DBD8D3" data-name="Vector" class="Vector_570"/>
				<path d="M56.6182 51.6093L29.901 6.47047L33.1748 1.61637L25.5665 0.972458C25.5665 0.972458 21.0963 20.6427 0.197357 36.8643L9.5577 73.1494L56.6182 51.6093Z" fill="#939498" data-name="Vector" transform="translate(-212.03 -191.63)"/>
				<path d="M0.807434 25.8278L8.55773 71.5332L90.1962 37.0963L59.0246 0.0280304L0.807434 25.8278Z" fill="#E33B2B" data-name="Vector" transform="translate(-210.42 -150.57)"/>
				<path d="M363.012 0.81749L372.631 305.88C298.462 302.208 235.737 298.484 235.737 298.484L171.882 87.0924L363.012 0.81749ZM380.612 967.88H223.387L316.182 933.437H380.874L380.612 967.88ZM143.614 967.88H0.620667L93.4158 933.437H143.876L143.614 967.88Z" fill="#8E231D" data-name="Vector" transform="translate(-421.61 -150.78)"/>
				<path d="M21.2523 0.041275L0.182831 53.26H14.6542L10.8091 64.5129C14.4427 65.0547 20.7029 64.8194 26.7169 62.7515C26.7169 62.7515 20.9839 72.5495 7.5606 74.8403L0.182831 95.625C0.182831 95.625 19.8664 94.9471 32.2005 83.8612C53.0995 67.6396 57.5697 47.9694 57.5697 47.9694L65.1779 48.6133L68.7674 43.2917L70.0428 14.0216L21.2523 0.041275Z" fill="#DBD8D3" data-name="Vector" transform="translate(-244.05 -239.56)"/>
				<g transform="translate(-253.67 -265.6)" width="126.25" height="317.75" data-name="Group">
					<path d="M11.3046 22.8301C17.5342 22.8301 22.5843 17.8779 22.5843 11.7691C22.5843 5.66021 17.5342 0.708023 11.3046 0.708023C5.07495 0.708023 0.0248413 5.66021 0.0248413 11.7691C0.0248413 17.8779 5.07495 22.8301 11.3046 22.8301Z" fill="#010101" data-name="Vector" transform="translate(92.03 245.71)"/>
					<path d="M11.9726 22.7518C18.2023 22.7518 23.2524 17.7996 23.2524 11.6908C23.2524 5.58195 18.2023 0.629761 11.9726 0.629761C5.743 0.629761 0.692894 5.58195 0.692894 11.6908C0.692894 17.7996 5.743 22.7518 11.9726 22.7518Z" fill="#010101" data-name="Vector" transform="translate(103.7 295.63)"/>
					<path d="M1.40914 0.0119095L13.0425 2.53802L12.2185 6.19098L0.58202 3.66177L1.40914 0.0119095Z" fill="#010101" data-name="Vector" transform="translate(31.59 45.01)"/>
					<path d="M48.1086 32.3163C48.1086 32.3163 9.06989 41.5942 0 0C0 0 12.0816 6.10168 36.9962 2.70257C62.9557 -0.838943 83.5295 -0.8699 94.7903 20.6609C102.5 35.4059 95.4911 56.364 84.9249 67.0164C84.9217 67.0195 57.2985 69.9542 48.1086 32.3163Z" fill="#010101" data-name="Vector"/>
				</g>
				<path d="M0.415802 635.437H51.2804C51.2804 635.437 171.178 418.417 123.59 341.138C123.59 341.138 309.815 163.611 285.633 69.355L142.737 0.484253L0.415802 635.437Z" fill="#E33B2B" data-name="Vector" transform="translate(-328.81 146.88)"/>
				<path d="M15.4526 29.328C23.4519 29.328 29.9366 22.969 29.9366 15.1248C29.9366 7.28057 23.4519 0.921574 15.4526 0.921574C7.45325 0.921574 0.968506 7.28057 0.968506 15.1248C0.968506 22.969 7.45325 29.328 15.4526 29.328Z" fill="#DBD8D3" data-name="Vector" transform="translate(-193.26 -213.68)"/>
				<path d="M4.65424 0.259964L0.809082 11.5129C0.809082 11.5129 15.0437 13.6026 25.9257 4.70853L4.65424 0.259964Z" fill="#010101" data-name="Vector" transform="translate(-233.42 -186.34)"/>
				<path d="M7.5606 17.8434C7.5606 17.8434 10.3103 17.4905 14.7206 15.695V27.0594C14.7206 27.0594 32.0932 21.4375 26.7169 5.75147L35.9257 0.708527C35.9257 0.708527 45.7028 15.9581 30.8525 28.0067C30.8525 28.0067 20.6335 37.3929 0.182831 38.625L7.5606 17.8434Z" fill="#010101" data-name="Vector" transform="translate(-244.05 -181.89)"/>
				<path d="M19.737 52.4873L0.972168 136.205L182.91 132.007L156.631 59.883L4.13858 0.850555L19.737 52.4873Z" fill="#8E231D" data-name="Vector" transform="translate(-205.26 95.25)"/>
				<path d="M53.423 80.9053C87.1612 80.9053 114.513 54.0839 114.513 20.9998C114.513 13.8611 113.174 7.04738 110.838 0.698044L0.345306 50.5764C10.8516 68.6772 30.6646 80.9053 53.423 80.9053Z" fill="#E33B2B" data-name="Vector" transform="translate(-220.88 -127.9)"/>
				<path d="M35.8117 16.8045L52.3162 0.0937347L59.7161 41.9697L37.5196 27.7912L35.8117 16.8045ZM23.6291 20.8599L0.16037 17.4639L20.2985 55.0987L29.0969 30.596L23.6291 20.8599Z" fill="#010101" data-name="Vector" transform="translate(-194.07 -120.51)"/>
				<path d="M12.5467 24.945C19.3482 24.945 24.8619 19.5382 24.8619 12.8686C24.8619 6.19897 19.3482 0.79216 12.5467 0.79216C5.74519 0.79216 0.231476 6.19897 0.231476 12.8686C0.231476 19.5382 5.74519 24.945 12.5467 24.945Z" fill="#010101" data-name="Vector" transform="translate(-175 -104.81)"/>
				<g transform="translate(-562.87 -216.54)" width="73.27" height="71.88" data-name="Group 1">
					<path d="M33.6353 65.4243C51.9302 65.4243 66.7611 50.881 66.7611 32.9408C66.7611 15.0007 51.9302 0.457344 33.6353 0.457344C15.3404 0.457344 0.509525 15.0007 0.509525 32.9408C0.509525 50.881 15.3404 65.4243 33.6353 65.4243Z" fill="#DBD8D3" data-name="Vector" class="Vector_382"/>
					<g width="73.27" height="71.88" data-name="Group">
						<g clip-path="url(#clip_6_521)" class="Frame_988" width="73.27" height="71.88" data-name="Frame">
							<path d="M36.6353 71.8817C56.8684 71.8817 73.2706 55.7904 73.2706 35.9408C73.2706 16.0913 56.8684 0 36.6353 0C16.4022 0 0 16.0913 0 35.9408C0 55.7904 16.4022 71.8817 36.6353 71.8817Z" fill="#FDBB3F" data-name="Vector" transform="translate(-13.36 -49.06)"/>
							<g transform="translate(-1.03 -38.97)" width="40.56" height="49.12" data-name="Group">
								<path d="M16.515 17.9145L8.85098 19.782C8.07936 19.97 7.26689 19.9136 6.52997 19.6208C5.79304 19.3281 5.16949 18.814 4.74866 18.1522L0.57013 11.5779C0.149501 10.9161 -0.0467784 10.1406 0.00942133 9.36267C0.065621 8.58471 0.371416 7.84417 0.882979 7.24718L5.96475 1.31659C6.47637 0.719703 7.16741 0.296975 7.9389 0.10896C8.71039 -0.0790543 9.52274 -0.0227093 10.2596 0.269924L17.5786 3.17856C18.3155 3.47131 18.9389 3.98542 19.3596 4.6472C19.7802 5.30897 19.9765 6.08442 19.9202 6.86236L19.3619 14.5904C19.3063 15.3685 19.0008 16.1093 18.4893 16.7066C17.9779 17.3038 17.2867 17.7267 16.515 17.9145ZM19.4373 47.9578L14.7718 49.0273C14.0116 49.2015 13.2151 49.1396 12.4923 48.8501C11.7696 48.5607 11.1564 48.058 10.7377 47.4117L8.048 43.2588C7.6187 42.596 7.41595 41.8162 7.46918 41.0326C7.5224 40.249 7.82885 39.5025 8.344 38.9014L11.3393 35.4057C11.8543 34.8045 12.5512 34.38 13.3289 34.1939C14.1066 34.0078 14.9245 34.0698 15.6638 34.3708L20.2956 36.2564C21.7732 36.8576 22.7021 38.3104 22.6115 39.8772L22.3395 44.5699C22.2935 45.3664 21.9859 46.1268 21.4628 46.7374C20.9396 47.3481 20.229 47.7763 19.4373 47.9578ZM38.748 23.6279C38.6803 23.6686 38.6225 23.7234 38.5788 23.7885C37.906 24.7767 36.9131 25.5135 35.7606 25.8797C34.6082 26.2458 33.3636 26.22 32.2279 25.8063L31.7819 25.6441C29.6722 24.8753 27.382 23.1518 27.382 20.9436L26.9472 18.2419C26.9472 16.0337 29.6722 14.3826 31.7819 13.6138C33.0633 13.147 34.4692 13.1256 35.7647 13.5532C37.0602 13.9807 38.1671 14.8313 38.9004 15.9629L39.4395 16.7947C40.1221 17.8484 40.5674 19.2547 40.5577 20.5839C40.5489 21.8344 39.8398 22.981 38.748 23.6279Z" fill="#8F241E" data-name="Vector"/>
							</g>
						</g>
					</g>
				</g>
				<path d="M0.724365 4.02285L0.7307 0.927124L145.868 1.2986L145.858 4.39433L0.724365 4.02285Z" fill="#010101" data-name="Vector" transform="translate(-186.51 145.33)"/>
				<path d="M0.546509 152.28L11.3875 172.821C32.2201 165.053 127.793 96.6192 148.115 26.6619L98.8979 0.0448456L0.546509 152.28Z" fill="#DBD8D3" data-name="Vector" transform="translate(-57.68 -11.56)"/>
				<path d="M87.8817 25.8558C87.8817 25.8558 78.9065 8.99955 56.246 2.81428C21.9079 -6.56268 0.560669 10.6589 0.560669 10.6589L89.3844 40.8205L87.8817 25.8558Z" fill="#DBD8D3" data-name="Vector" transform="translate(-135.67 120.42)"/>
			</g>
		</g>
		<g transform="translate(762.51 279) rotate(180)" width="579.96" height="858.93" data-name="Group">
			<g transform=" rotate(180)" clip-path="url(#clip_3_888)" width="579.96" height="858.93" data-name="Frame">
				<path d="M24.5975 0.0399475L47.6854 73.337L0.239441 89.8072L1.302 18.4203L24.5975 0.0399475Z" fill="#939498" data-name="Vector" transform="translate(-315.27 -204.96)"/>
				<path d="M33.1815 64.5411C51.3406 64.5411 66.0616 50.1326 66.0616 32.3588C66.0616 14.585 51.3406 0.17651 33.1815 0.17651C15.0223 0.17651 0.301361 14.585 0.301361 32.3588C0.301361 50.1326 15.0223 64.5411 33.1815 64.5411Z" fill="#DBD8D3" data-name="Vector" transform="translate(-336.21 -256.82)"/>
				<path d="M28.4486 62.5767C23.1868 63.8486 17.6866 63.8382 12.4298 62.5464L14.9731 53.5684L0.828552 51.9736L26.6828 0.792351L76.415 21.3224L71.4399 51.9857L66.9915 57.1614L59.0456 55.5757C59.0456 55.5757 57.0909 68.283 36.825 80.7782C23.0894 89.2467 5.17165 88.1825 5.17165 88.1825L10.1963 70.4328C13.6596 70.6541 17.1264 70.0557 20.3035 68.6883C23.4805 67.3208 26.2744 65.2245 28.4486 62.5767Z" fill="#DBD8D3" data-name="Vector" transform="translate(-355.68 -245.21)"/>
				<path d="M2.40403 0.765705L13.9588 5.30167L12.475 8.91892L0.920166 4.38295L2.40403 0.765705Z" fill="#010101" data-name="Vector" transform="translate(-331.59 -223.23)"/>
				<path d="M0.497253 6.27612C68.7884 -11.2007 119.301 2.89536 111.104 112.292H49.6625C49.6625 90.2158 47.525 59.88 47.525 59.88C0.497253 43.7858 0.497253 6.27612 0.497253 6.27612Z" fill="#010101" data-name="Vector" transform="translate(-340.01 -279)"/>
				<path d="M13.9624 26.3832C21.3859 26.3832 27.4038 20.493 27.4038 13.2271C27.4038 5.96118 21.3859 0.0709839 13.9624 0.0709839C6.53895 0.0709839 0.521027 5.96118 0.521027 13.2271C0.521027 20.493 6.53895 26.3832 13.9624 26.3832Z" fill="#DBD8D3" data-name="Vector" transform="translate(-304.99 -208.93)"/>
				<path d="M0.00765991 0.0935669L64.2097 297.063L107.139 295.835C107.139 295.835 142.931 118.156 94.7819 43.1792C67.8651 1.27609 0.00765991 0.0935669 0.00765991 0.0935669Z" fill="#010101" data-name="Vector" transform="translate(-487.5 258.09)"/>
				<path d="M357.764 2.8692L417.025 0.376846L428.286 32.7229L361.73 34.9333L357.764 2.8692ZM466.838 337.454L174.405 337.964L0.215752 702.063H43.1513C43.1513 702.063 212.728 543.823 211.892 412.183C211.892 412.183 399.346 501.21 462.086 430.172C497.956 389.548 466.838 337.454 466.838 337.454Z" fill="#E33B2B" data-name="Vector" transform="translate(-680.29 -146.62)"/>
				<g transform="translate(-762.51 -122.01)" width="579.96" height="706.8" data-name="Group">
					<path d="M125.145 677.068L125.56 706.804H0L82.2157 677.068H125.145ZM382.139 675.841L382.557 705.576H256.994L339.21 675.841H382.139ZM443.33 6.28512C443.33 6.28512 516.965 -26.5976 557.825 58.0637C612.408 171.16 548.841 312.454 548.841 312.454L451.211 312.624L443.33 6.28512Z" fill="#8E231D" data-name="Vector"/>
					<path d="M44.264 85.6471C68.4147 85.6471 87.9926 66.4846 87.9926 42.8465C87.9926 19.2084 68.4147 0.045929 44.264 0.045929C20.1134 0.045929 0.535431 19.2084 0.535431 42.8465C0.535431 66.4846 20.1134 85.6471 44.264 85.6471Z" fill="#8E231D" data-name="Vector" transform="translate(408.54 64.05)"/>
				</g>
				<path d="M28.72 55.2006C44.0682 55.2006 56.5104 43.0225 56.5104 28C56.5104 12.9775 44.0682 0.799347 28.72 0.799347C13.3718 0.799347 0.929596 12.9775 0.929596 28C0.929596 43.0225 13.3718 55.2006 28.72 55.2006Z" fill="#DBD8D3" data-name="Vector" class="Vector_133"/>
				<path d="M0.173843 20.8895L2.52507 1.64197C21.0314 -0.977734 143.571 -3.68234 179.583 45.995L148.652 80.6666L1.37889 20.3619L0.173843 20.8895Z" fill="#DBD8D3" data-name="Vector" class="Vector_780"/>
				<path d="M0.711731 42.3918L26.1137 14.9759L49.53 0.773682C49.53 0.773682 42.2502 33.0712 39.5861 35.1148C36.922 37.1585 11.1575 53.6498 9.41967 56.0361C7.68181 58.4223 0.711731 42.3918 0.711731 42.3918Z" fill="#8E231D" data-name="Vector" transform="translate(-343.8 -84.23)"/>
				<path d="M0.898544 140.539L2.30186 108.812C46.2907 106.32 111.171 111.238 140.359 143.462L279.14 0.761383C279.14 0.761383 320.852 35.3269 283.917 87.3268C220.05 177.24 118.677 188.752 118.662 188.755L0.898544 140.539Z" fill="#E33B2B" data-name="Vector" class="Vector_660"/>
				<path d="M151.838 0.454376L0.0115967 0.724244L0.0611816 110.815C0.0611816 110.815 42.2564 123.947 86.9329 120.045C202.63 109.933 171.723 13.0435 151.838 0.454376Z" fill="#8E231D" data-name="Vector" transform="translate(-365.5 190.45)"/>
			</g>
		</g>
	</g>
</g>
<defs><clipPath id="clip_0_578"><rect width="1987" height="1539"/></clipPath><clipPath id="clip_1_770"><rect width="1987" height="1462"/></clipPath><clipPath id="clip_3_48"><rect width="131.64" height="86.5"/></clipPath><clipPath id="clip_3_168"><rect width="115.49" height="80.41"/></clipPath><clipPath id="clip_3_508"><rect width="72.03" height="135.23"/></clipPath><clipPath id="clip_3_100"><rect width="260.79" height="236.36"/></clipPath><clipPath id="clip_3_968"><rect width="1748.56" height="622.57"/></clipPath><clipPath id="clip_3_60"><rect width="226.02" height="384.99"/></clipPath><clipPath id="clip_3_11"><rect width="353.93" height="654.24"/></clipPath><clipPath id="clip_3_8"><rect width="348.97" height="648.15"/></clipPath><clipPath id="clip_3_874"><rect width="121.7" height="84.06"/></clipPath><clipPath id="clip_3_828"><rect width="98.11" height="64.57"/></clipPath><clipPath id="clip_3_915"><rect width="167.65" height="68.23"/></clipPath><clipPath id="clip_3_173"><rect width="72.03" height="46.3"/></clipPath><clipPath id="clip_3_771"><rect width="668.13" height="1081.88"/></clipPath><clipPath id="clip_6_521"><rect width="73.27" height="71.88"/></clipPath><clipPath id="clip_3_888"><rect width="579.96" height="858.93"/></clipPath>
</defs>
</svg>