<svg xmlns="http://www.w3.org/2000/svg" viewBox="0 0 1600 1200" width="1600" height="1200"><g transform="translate(464.0 218.0) rotate(0.0 269.0 444.0) scale(2.542076564700101 2.5409542885757204)"><svg width="211.638" height="349.475" viewBox="0 0 211.638 349.475"><path d="m169.428 338.349-2.019-202.809-39.319-1.795 20.846 204.604z" fill="#010101"/><path d="M48.489 90.157s37.079 9.438 97.214-11.865c.44-.156.87-.318 1.305-.476-.859-9.888-6.524-18.901-9.878-28.463zm107.909-29.454c3.354-9.562 6.503-13.724 7.361-23.611.488.178.982.348 1.462.534 54.16 20.933 45.975 53.086 45.975 53.086z" fill="#e33b2b"/><path d="m4.302 28.381 11.028-.957.191 5.36s48.256 25.393 51.762 48.718l-18.795 8.652-39.49-56.055s.967 1.53-4.696-5.718z" fill="#dbd8d3"/><path d="m133.236 40.252-8.463-14.581 1.037-1.568-2.41-.208s-1.416 6.354-8.036 11.594l2.965 11.721z" fill="#939498"/><path d="m115.874 45.491 2.455 14.764 25.86-11.124-9.874-11.974z" fill="#e33b2b"/><path d="m163.77 37.089 3.047 98.543c-23.494-1.186-43.363-2.389-43.363-2.389l-20.227-68.285zm5.575 312.386h-49.803l29.394-11.126h20.492zm-75.072 0H48.978l29.394-11.126h15.984z" fill="#8e231d"/><path d="m111.897 8.412-6.674 17.191h4.584l-1.218 3.635c1.151.175 3.134.099 5.039-.569 0 0-1.816 3.165-6.068 3.905l-2.337 6.714s6.235-.219 10.142-3.8c6.62-5.24 8.036-11.594 8.036-11.594l2.41.208 1.137-1.719.404-9.455z" fill="#dbd8d3"/><g fill="#010101"><circle cx="134.899" cy="82.943" r="3.573"/><circle cx="138.595" cy="99.069" r="3.573"/><path d="m112.442 14.54 3.685.816-.261 1.18-3.686-.817z"/><path d="M117.415 10.439S105.049 13.436 102.176 0c0 0 3.827 1.971 11.719.873 8.223-1.144 14.74-1.154 18.307 5.801 2.442 4.763.222 11.533-3.125 14.974-.001.001-8.751.949-11.662-11.209z"/></g><path d="M78.372 338.349h16.112s37.979-70.103 22.905-95.066c0 0 58.989-57.346 51.329-87.793l-45.264-22.247z" fill="#e33b2b"/><circle cx="125.898" cy="21.36" fill="#dbd8d3" r="4.588"/><path d="m109.807 25.603-1.218 3.635s4.509.675 7.956-2.198z" fill="#010101"/><path d="M107.56 32.575s.871-.114 2.268-.694v3.671s5.503-1.816 3.8-6.883l2.917-1.629s3.097 4.926-1.607 8.818c0 0-3.237 3.032-9.715 3.43z" fill="#010101"/><path d="m123.454 133.244-5.944 27.043 57.631-1.356-8.324-23.298-48.304-19.069z" fill="#8e231d"/><path d="M129.373 70.389c10.687 0 19.351-8.664 19.351-19.351 0-2.306-.424-4.507-1.164-6.558l-35 16.112c3.328 5.847 9.604 9.797 16.813 9.797z" fill="#e33b2b"/><path d="m132.347 52.267 5.228-5.398 2.344 13.527-7.031-4.58zm-3.859 1.31-7.434-1.097 6.379 12.157 2.787-7.915z" fill="#010101"/><circle cx="130.996" cy="55.841" fill="#010101" r="3.901"/><circle cx="10.495" cy="29.984" fill="#dbd8d3" r="10.493"/><path d="m123.45 133.74.002-1 45.974.12-.003 1z" fill="#010101"/><path d="m164.256 131.239 3.434 6.635c6.599-2.509 36.873-24.615 43.31-47.213l-15.59-8.598z" fill="#dbd8d3"/><path d="M167.213 133.04s-2.843-5.445-10.021-7.443c-10.877-3.029-17.639 2.534-17.639 2.534l28.136 9.743z" fill="#dbd8d3"/></svg></g><g transform="translate(1467.0 411.0) rotate(0.0 -53.0 -43.0) translate(-0.0 -2.0) scale(-2.335007489646665 -2.3533918944804753)"><svg width="45.396" height="30.169" viewBox="0 0.85 45.396 30.169"><path d="M22.301 24.041H9.261C4.155 24.041 0 19.886 0 14.779c0-5.211 4.239-9.45 9.45-9.45h12.534v4.9H9.45a4.555 4.555 0 0 0-4.55 4.55 4.366 4.366 0 0 0 4.361 4.361h13.04zM6.98 32.936h38.416v3.607H6.98z" fill="#939498"/><path d="M31.262 32.936H21.113a8.713 8.713 0 0 1-8.713-8.713V0h27.574v24.223a8.712 8.712 0 0 1-8.712 8.713z" fill="#939498"/></svg></g><g transform="translate(1370.0 410.0) rotate(0.0 -46.5 -37.5) translate(-0.0 -1.0) scale(-2.0486386465767907 -2.052376652163205)"><svg width="45.396" height="32.158" viewBox="0 0.487 45.396 32.158"><path d="M22.301 24.041H9.261C4.155 24.041 0 19.886 0 14.779c0-5.211 4.239-9.45 9.45-9.45h12.534v4.9H9.45a4.555 4.555 0 0 0-4.55 4.55 4.366 4.366 0 0 0 4.361 4.361h13.04zM6.98 32.936h38.416v3.607H6.98z" fill="#DBD8D3"/><path d="M31.262 32.936H21.113a8.713 8.713 0 0 1-8.713-8.713V0h27.574v24.223a8.712 8.712 0 0 1-8.712 8.713z" fill="#dbd8d3"/></svg></g><g transform="translate(502.0 385.0) rotate(0.0 -29.0 58.5) translate(-0.0 0.0) scale(-1.3821041343977123 1.4251955075888616)"><svg width="41.965" height="77.884" viewBox="0 0 41.965 77.884"><path d="m36.871 2.179-.01-1.437A.747.747 0 0 0 36.108 0l-8.444.062a2.06 2.06 0 0 0-1.949 1.441L19.52 21.181l3.305 1.04 6.056-19.237 7.248-.053a.747.747 0 0 0 .742-.752z" fill="#E33B2B"/><path d="M38.913 27.797c-.104-8.221-8.09-14.859-17.931-14.859S3.155 19.577 3.052 27.797A3.633 3.633 0 0 0 0 31.381v3.523h41.965v-3.523a3.633 3.633 0 0 0-3.052-3.584z" fill="#FCBA3D"/><path d="M38.758 34.939 37.567 46.36l-2.082 19.925-1.651 15.809H8.551l-1.65-15.809L4.819 46.36 3.624 34.939z" fill="#E33B2B"/></svg></g><g transform="translate(1266.0 409.0) rotate(0.0 105.0 97.5) translate(0.0 0.0) scale(0.4761926357942666 0.29464872583313817)"><svg width="440.998" height="658.411" viewBox="0 0 440.998 658.411"><path d="M0 24h440.998v637.805H0z" fill="#939498"/><g fill="#dbd8d3"><path d="M24.752 52.696h391.495v135.513H24.752zm0 163.571h391.495v126.805H24.752zm0 156.98h391.495v126.805H24.752z"/></g><path d="M19.535 519.129h200.964v124.516H19.535zm200.964 0h200.964v124.516H220.499z" fill="#8e231d"/><path d="M220.56 519.082h.939v124.546h-.939z" fill="#010101"/></svg></g><g transform="translate(112.0 412.0) rotate(0.0 704.0 351.5) translate(0.0 191.0) scale(4.786657193074305 4.759841293485179)"><svg width="294.151" height="107.357" viewBox="0 40.127 294.151 107.357"><path d="M7.055 45.38h278.218v102.314H7.055z" fill="#939598"/><path d="M236.253 0h49.211v33.598h-49.211z" fill="#fdbb3f"/><path d="M278.405 8.306h-33.636v25.292h10.428v14.678l11.762.474V33.598h11.446z" fill="#939598"/><path d="M0 40.043h294.151v6.146H0z" fill="#020202"/><path d="M48.797 66.161h197.646v81.533H48.797z" fill="#dcd9d3"/></svg></g><g transform="translate(614.0 229.0) rotate(0.0 -233.5 354.5) translate(-0.0 0.0) scale(-2.494458243196325 2.488697312628121)"><svg width="187.215" height="283.281" viewBox="0 0 187.215 283.281"><path d="m152.236 24.419 7.453 24.174-15.316 5.432.343-23.544z" fill="#939498"/><circle cx="148.228" cy="17.928" fill="#dbd8d3" r="10.614"/><path d="M140.244 31.522a10.7 10.7 0 0 1-5.171-.01l.821-2.961-4.566-.526 8.346-16.88 16.054 6.771-1.606 10.113-1.436 1.707-2.565-.523s-.631 4.191-7.173 8.312c-4.434 2.793-10.218 2.442-10.218 2.442l1.622-5.854a6.976 6.976 0 0 0 5.892-2.591z" fill="#dbd8d3"/><path d="m139.584 18.392 3.73 1.496-.479 1.193-3.73-1.496z" fill="#010101"/><path d="M136.386 2.07c22.045-5.764 38.351-1.115 35.705 34.965h-19.834c0-7.281-.69-17.286-.69-17.286-15.181-5.308-15.181-17.679-15.181-17.679z" fill="#010101"/><circle cx="152.031" cy="27.449" fill="#dbd8d3" r="4.339"/><path d="m88.775 177.138 20.725 97.943 13.858-.405s11.554-58.6-3.989-83.328c-8.689-13.82-30.594-14.21-30.594-14.21z" fill="#010101"/><path d="m141.96 44.481 19.13-.822 3.635 10.668-21.485.729zm35.21 110.349-94.4.168-56.23 120.083H40.4s54.741-52.189 54.471-95.605c0 0 60.512 29.362 80.765 5.933 11.579-13.398 1.534-30.579 1.534-30.579z" fill="#e33b2b"/><g fill="#8e231d"><path d="m40.398 275.081.134 9.807H0l26.54-9.807zm82.96-.405.135 9.807H82.96l26.54-9.807zm19.753-220.825s23.77-10.845 36.96 17.077c17.62 37.3-2.9 83.9-2.9 83.9l-31.516.056z"/><circle cx="145.995" cy="87.017" r="14.116"/></g><circle cx="55.433" cy="104.085" fill="#dbd8d3" r="8.971"/><path d="m61.39 108.851.759-6.348c5.974-.864 45.531-1.756 57.156 14.628l-9.985 11.435-47.541-19.889z" fill="#dbd8d3"/><path d="m135.164 77.964 8.2-9.042 7.559-4.684s-2.35 10.652-3.21 11.326-9.177 6.113-9.738 6.9-2.811-4.5-2.811-4.5z" fill="#8e231d"/><path d="m71.309 112.664.453-10.464c14.2-.822 35.144.8 44.566 11.428l44.8-47.064s13.465 11.4 1.542 28.55c-20.617 29.654-53.341 33.451-53.346 33.452z" fill="#e33b2b"/><path d="m177.17 154.83-49.011.089.016 36.309s13.621 4.331 28.043 3.044c37.348-3.335 27.371-35.29 20.952-39.442z" fill="#8e231d"/></svg></g><g transform="translate(1239.0 286.0) rotate(0.0 -91.0 158.0) scale(-1.0595378784791556 1.0613821479553278)"><svg width="171.773" height="297.725" viewBox="0 0 171.773 297.725"><path d="M146.976 84.506H66.797L47.27 16.592 59.764 0h94.244l12.494 16.592z" fill="#dcd9d3"/><path d="M138.982 84.506H74.708L62.687 38.955h88.832z" fill="#020202"/><path d="M60.626 168.254h106.96v-84.45H0v213.92h167.586v-22.51H60.626z" fill="#e23d2c"/><path d="M60.626 269.008h106.963v6.205H60.626z" fill="#dcd9d3"/><path d="M167.628 168.253v19.919h-30.774v.048c-.024 5.932-4.85 10.742-10.791 10.742h-23.825a10.753 10.753 0 0 1-7.627-3.164 10.756 10.756 0 0 1-3.164-7.579v-.048H60.672v-19.919h106.956z" fill="#939598"/><path d="M167.628 180.505v7.667h-30.775v.049h-76.23v-7.716z" fill="#dcd9d3"/><g fill="#8f241e"><path d="M11.484 95.673h41.711v6.006H11.484zm0 12h41.711v6.006H11.484zm0 13h41.711v6.006H11.484zm156.144-14.993h4.145v17.503h-4.145zm0 25.02h4.145v17.503h-4.145z"/></g></svg></g><g transform="translate(126.0 577.0) rotate(0.0 142.5 268.5) scale(3.5565871738235186 3.5533733887403725)"><svg width="80.133" height="151.124" viewBox="0 0 80.133 151.124"><path d="m61.612 99.933-2.484-66.834-47.118.016L5.936.637H0l5.537 32.36L0 151.124h5.978l3.189-72.762h46.071l2.378 72.762h5.898l-1.705-45.868h13.003l5.32-5.32v-.002h-18.52zM9.411 72.735l1.339-30.618h43.306l1 30.618z" fill="#fcba3d"/></svg></g><g transform="translate(1028.0 582.0) rotate(0.0 -140.5 266.0) scale(-3.5066701608575745 3.5202879754373892)"><svg width="80.133" height="151.124" viewBox="0 0 80.133 151.124"><path d="m61.612 99.933-2.484-66.834-47.118.016L5.936.637H0l5.537 32.36L0 151.124h5.978l3.189-72.762h46.071l2.378 72.762h5.898l-1.705-45.868h13.003l5.32-5.32v-.002h-18.52zM9.411 72.735l1.339-30.618h43.306l1 30.618z" fill="#fcba3d"/></svg></g><g transform="translate(615.0 534.0) rotate(0.0 49.0 39.5) translate(0.0 0.0) scale(2.158780509295973 2.161836740278576)"><svg width="45.396" height="31.917" viewBox="0 0 45.396 31.917"><path d="M22.301 24.041H9.261C4.155 24.041 0 19.886 0 14.779c0-5.211 4.239-9.45 9.45-9.45h12.534v4.9H9.45a4.555 4.555 0 0 0-4.55 4.55 4.366 4.366 0 0 0 4.361 4.361h13.04zM6.98 32.936h38.416v3.607H6.98z" fill="#939498"/><path d="M31.262 32.936H21.113a8.713 8.713 0 0 1-8.713-8.713V0h27.574v24.223a8.712 8.712 0 0 1-8.712 8.713z" fill="#939498"/></svg></g><g transform="translate(1299.0 440.0) rotate(0.0 39.5 26.5) scale(0.8183560366706376 0.826330313849608)"><svg width="96.535" height="64.139" viewBox="0 0 96.535 64.139"><path d="M10.596 37.857C6.267 45.96 2.58 55.087 0 63.904c1.058.438 2.261.178 3.374-.088 6.997-1.672 14.356-3.356 21.353-5.029" fill="#fdbb3f"/><path d="M25.443 13.223C18.429 19.432 11.127 24.503 8.7 33.601c-.991 3.715 2.126 6.307 4.25 9.512l11.406 17.213c.193.292.413.604.747.708.312.097.646-.013.954-.121 3.011-1.06 7.174-2.39 10.185-3.45" fill="#e23d2c"/><path d="M70.725 9.807C69.903 1.913 57.963.093 48.427.004V0l-.16.002a8.536 8.536 0 0 0-.16-.002v.004c-9.536.089-21.475 1.91-22.298 9.803a21.681 21.681 0 0 0-.055 3.463c.335 5.961 2.604 12.922 3.729 18.258a268.549 268.549 0 0 0 5.826 22.687c.576 1.904 1.232 3.895 2.691 5.247 1.614 1.494 3.912 1.942 6.092 2.246 1.195.166 3.552.418 4.073.466.069.006.137.006.205 0 .521-.048 2.878-.3 4.073-.466 2.18-.304 4.478-.752 6.092-2.246 1.459-1.352 2.115-3.343 2.691-5.247a268.647 268.647 0 0 0 5.826-22.687c1.125-5.336 3.394-12.298 3.729-18.258a21.796 21.796 0 0 0-.056-3.463zm15.213 28.05c4.329 8.103 8.016 17.23 10.596 26.047-1.058.438-2.261.178-3.374-.088-6.997-1.672-14.356-3.356-21.353-5.029" fill="#fdbb3f"/><path d="M70.47 13.223c7.014 6.209 14.316 11.28 16.743 20.378.991 3.715-2.126 6.307-4.25 9.512L71.557 60.326c-.193.292-.413.604-.747.708-.312.097-.646-.013-.954-.121-3.011-1.06-7.174-2.39-10.185-3.45" fill="#e23d2c"/></svg></g><g transform="translate(1306.0 525.0) rotate(0.0 67.5 28.0) scale(1.1537081033038783 1.1374253564609822)"><svg width="117.014" height="49.234" viewBox="0 0 117.014 49.234"><path d="M114.46 21.844H4.257c.497-6.201 4.758-10.667 11.6-13.798 3.86-1.77 8.55-3.111 13.853-4.091 3.302-.613 6.841-1.082 10.572-1.436 5.616-.524 11.661-.776 17.957-.803.429-.007.858-.007 1.287-.007 2.267 0 4.5.027 6.685.082 6.208.17 12.09.579 17.474 1.287 1.974.259 3.88.565 5.711.905 5.276.994 9.925 2.348 13.744 4.146 6.684 3.116 10.816 7.561 11.32 13.715z" fill="#fdbb3f"/><path d="M108.812 49.234H9.319L3.903 21.561h110.325z" fill="#dcd9d3"/><path d="M0 21.561h117.014v8.049H0z" fill="#939598"/><g fill="#e23d2c"><path d="m29.418 3.911-8.972 8.972-4.881-4.881c3.86-1.77 8.551-3.111 13.853-4.091zm28.999-1.77-9.38 9.38-9.047-9.047c5.616-.524 11.661-.776 17.958-.803zm24.976.892-8.489 8.489-9.38-9.38.395-.395c6.208.169 12.09.578 17.474 1.286zm19.455 5.051-4.799 4.799-8.945-8.945c5.276.994 9.926 2.349 13.744 4.146z"/></g></svg></g><g transform="translate(1384.0 455.0) rotate(0.0 29.0 19.0) scale(0.6008183560366707 0.5924632438921718)"><svg width="96.535" height="64.139" viewBox="0 0 96.535 64.139"><path d="M10.596 37.857C6.267 45.96 2.58 55.087 0 63.904c1.058.438 2.261.178 3.374-.088 6.997-1.672 14.356-3.356 21.353-5.029" fill="#fdbb3f"/><path d="M25.443 13.223C18.429 19.432 11.127 24.503 8.7 33.601c-.991 3.715 2.126 6.307 4.25 9.512l11.406 17.213c.193.292.413.604.747.708.312.097.646-.013.954-.121 3.011-1.06 7.174-2.39 10.185-3.45" fill="#e23d2c"/><path d="M70.725 9.807C69.903 1.913 57.963.093 48.427.004V0l-.16.002a8.536 8.536 0 0 0-.16-.002v.004c-9.536.089-21.475 1.91-22.298 9.803a21.681 21.681 0 0 0-.055 3.463c.335 5.961 2.604 12.922 3.729 18.258a268.549 268.549 0 0 0 5.826 22.687c.576 1.904 1.232 3.895 2.691 5.247 1.614 1.494 3.912 1.942 6.092 2.246 1.195.166 3.552.418 4.073.466.069.006.137.006.205 0 .521-.048 2.878-.3 4.073-.466 2.18-.304 4.478-.752 6.092-2.246 1.459-1.352 2.115-3.343 2.691-5.247a268.647 268.647 0 0 0 5.826-22.687c1.125-5.336 3.394-12.298 3.729-18.258a21.796 21.796 0 0 0-.056-3.463zm15.213 28.05c4.329 8.103 8.016 17.23 10.596 26.047-1.058.438-2.261.178-3.374-.088-6.997-1.672-14.356-3.356-21.353-5.029" fill="#fdbb3f"/><path d="M70.47 13.223c7.014 6.209 14.316 11.28 16.743 20.378.991 3.715-2.126 6.307-4.25 9.512L71.557 60.326c-.193.292-.413.604-.747.708-.312.097-.646-.013-.954-.121-3.011-1.06-7.174-2.39-10.185-3.45" fill="#e23d2c"/></svg></g><g transform="translate(456.0 238.0) rotate(0.0 29.5 29.5) scale(0.6459382526822859 0.6459382526822859)"><svg width="91.34" height="91.34" viewBox="0 0 91.34 91.34"><circle cx="45.67" cy="45.67" fill="#fdbb3f" r="45.67"/><g fill="#8f241e"><path d="m35.962 35.591-9.554 2.373a4.694 4.694 0 0 1-5.114-2.071l-5.209-8.354a4.693 4.693 0 0 1 .39-5.503L22.81 14.5a4.694 4.694 0 0 1 5.354-1.33l9.124 3.696a4.692 4.692 0 0 1 2.919 4.681l-.696 9.82a4.69 4.69 0 0 1-3.549 4.224zm3.643 38.176-5.816 1.359a4.694 4.694 0 0 1-5.029-2.053l-3.353-5.277a4.693 4.693 0 0 1 .369-5.537l3.734-4.442a4.692 4.692 0 0 1 5.391-1.315l5.774 2.396c1.842.764 3 2.61 2.887 4.601l-.339 5.963a4.694 4.694 0 0 1-3.618 4.305zm24.073-30.916a.674.674 0 0 0-.211.204 6.711 6.711 0 0 1-7.917 2.564l-.556-.206c-2.63-.977-5.485-3.167-5.485-5.973l-.542-3.433c0-2.806 3.397-4.904 6.027-5.881a7.445 7.445 0 0 1 8.874 2.985l.672 1.057c.851 1.339 1.406 3.126 1.394 4.815-.011 1.589-.895 3.046-2.256 3.868z"/></g></svg></g></svg>