<svg width="63" height="63" viewBox="0 0 63 63" fill="none" xmlns="http://www.w3.org/2000/svg">
<path d="M5.90625 9.90478C6.53822 9.86344 7.19381 9.84375 7.875 9.84375C21.8354 9.84375 25.5937 18.5437 25.5937 25.5937L31.4232 34.5614C31.6673 34.9374 31.3976 35.4375 30.9468 35.4375H25.5937V43.3125C25.5937 44.3992 24.7117 45.2812 23.625 45.2812H17.7187C17.7187 48.8053 17.9255 51.6009 19.6875 55.125" stroke="#FF4B3A" stroke-width="2" stroke-miterlimit="10" stroke-linecap="round" stroke-linejoin="round"/>
<path d="M19.1953 25.5938H18.2109" stroke="#FF4B3A" stroke-width="2" stroke-miterlimit="10" stroke-linecap="round" stroke-linejoin="round"/>
<path d="M53.1562 15.75C55.3309 15.75 57.0938 13.5464 57.0938 10.8281C57.0938 8.10985 55.3309 5.90625 53.1562 5.90625C50.9816 5.90625 49.2188 8.10985 49.2188 10.8281C49.2188 13.5464 50.9816 15.75 53.1562 15.75Z" stroke="#FF4B3A" stroke-width="2" stroke-miterlimit="10" stroke-linecap="round" stroke-linejoin="round"/>
<path d="M53.1562 25.5937V15.75" stroke="#FF4B3A" stroke-width="2" stroke-miterlimit="10" stroke-linecap="round" stroke-linejoin="round"/>
<path d="M43.3125 5.90625V11.8125C43.3125 12.8992 42.4305 13.7812 41.3438 13.7812H37.4062C36.3195 13.7812 35.4375 12.8992 35.4375 11.8125V5.90625" stroke="#FF4B3A" stroke-width="2" stroke-miterlimit="10" stroke-linecap="round" stroke-linejoin="round"/>
<path d="M39.375 13.7812V25.5938" stroke="#FF4B3A" stroke-width="2" stroke-miterlimit="10" stroke-linecap="round" stroke-linejoin="round"/>
</svg>
